<svg width="374" height="364" viewBox="0 0 374 364" fill="none" xmlns="http://www.w3.org/2000/svg">
<path d="M371.666 176.479C367.646 134.808 346.717 93.2336 328.663 70.2741C252.141 -27.0379 98.5556 -26.8478 25.4028 95.3746C4.76899 129.849 -8.17857 206.493 7.1451 263.182C26.7554 335.733 104.033 363.99 189.968 363.322C270.26 362.698 333.393 327.789 357.032 279.563C371.824 249.386 375.685 218.15 371.666 176.479Z" fill="#37474F"/>
<path d="M25.4028 95.3746C4.76899 129.849 -8.17857 206.493 7.14511 263.182C10.5859 275.912 15.8084 287.273 22.5355 297.359L22.5363 297.36L107.857 248.107L180.569 206.133L351.385 107.527C351.385 107.527 351.384 107.525 351.383 107.524C344.272 92.7548 336.218 79.8817 328.664 70.2748C252.142 -27.0379 98.5556 -26.8478 25.4028 95.3746Z" fill="#263238"/>
<g opacity="0.2">
<path d="M25.5426 153.918C27.1955 152.965 28.5348 150.645 28.5348 148.736V142.68C28.5348 140.772 27.1955 139.999 25.5426 140.953L5.77786 152.364C4.86684 157.047 4.05902 161.845 3.3645 166.722L25.5426 153.918Z" fill="#1A1A2E"/>
<path d="M18.4905 109.162L25.542 105.092C27.1949 104.137 28.5342 101.817 28.5342 99.9087V93.8536C28.5342 92.8393 28.1486 92.158 27.5456 91.8748C26.8247 93.0318 26.1085 94.1958 25.4023 95.3753C22.9812 99.4206 20.6672 104.054 18.4905 109.162Z" fill="#1A1A2E"/>
<path d="M55.6096 55.9228L61.5817 52.475C63.2315 51.5221 64.5685 49.208 64.5732 47.3014C61.5243 50.0508 58.5359 52.9251 55.6096 55.9228Z" fill="#1A1A2E"/>
<path d="M28.5349 212.422V206.367C28.5349 204.459 27.1955 203.686 25.5426 204.639L0.681885 218.993C0.865021 223.176 1.15137 227.337 1.54713 231.459L25.5426 217.605C27.1955 216.65 28.5349 214.331 28.5349 212.422Z" fill="#1A1A2E"/>
<path d="M100.613 122.049V115.994C100.613 114.085 99.2735 113.312 97.6206 114.266L69.9205 130.26C68.2676 131.213 66.9283 133.534 66.9275 135.443V141.498C66.9275 143.406 68.2676 144.18 69.9197 143.225L97.6206 127.232C99.2735 126.277 100.613 123.957 100.613 122.049Z" fill="#1A1A2E"/>
<path d="M7.85571 265.619C8.44004 267.619 9.06239 269.589 9.73518 271.52V267.736C9.73518 266.282 8.95608 265.494 7.85571 265.619Z" fill="#1A1A2E"/>
<path d="M8.04689 194.72C9.69899 193.767 11.0391 191.446 11.0391 189.538V183.483C11.0391 181.575 9.69899 180.801 8.04689 181.755L1.2856 185.658C0.943385 190.095 0.702049 194.563 0.564697 199.04L8.04689 194.72Z" fill="#1A1A2E"/>
<path d="M105.96 90.6084L133.66 74.6159C135.313 73.6614 136.652 71.3411 136.652 69.4329V63.3778C136.652 61.4696 135.313 60.696 133.66 61.6504L105.96 77.643C104.307 78.5975 102.968 80.9177 102.968 82.8259V88.8811C102.968 90.7892 104.306 91.5621 105.96 90.6084Z" fill="#1A1A2E"/>
<path d="M124.503 191.308L152.204 175.315C153.856 174.361 155.196 172.04 155.196 170.132V164.077C155.196 162.169 153.856 161.395 152.204 162.35L124.503 178.342C122.851 179.296 121.511 181.617 121.511 183.525V189.58C121.511 191.489 122.851 192.262 124.503 191.308Z" fill="#1A1A2E"/>
<path d="M52.4249 73.6374L80.125 57.6448C81.7779 56.6903 83.1172 54.3701 83.1172 52.4619V46.4067C83.1172 44.4986 81.7779 43.7249 80.125 44.6794L52.4249 60.672C50.772 61.6264 49.4326 63.9467 49.4326 65.8549V71.91C49.4318 73.8182 50.772 74.5918 52.4249 73.6374Z" fill="#1A1A2E"/>
<path d="M102.968 120.724C102.968 122.632 104.307 123.406 105.96 122.452L133.66 106.46C135.313 105.506 136.652 103.185 136.652 101.277V95.2225C136.652 93.3143 135.313 92.5406 133.66 93.4943L105.96 109.487C104.307 110.441 102.968 112.762 102.968 114.67V120.724Z" fill="#1A1A2E"/>
<path d="M61.5816 198.726L33.8815 214.719C32.2286 215.673 30.8892 217.994 30.8892 219.902L30.8884 225.957C30.8884 227.865 32.2278 228.639 33.8807 227.684L61.5816 211.692C63.2344 210.737 64.5738 208.417 64.5738 206.509V200.454C64.5738 198.545 63.2344 197.772 61.5816 198.726Z" fill="#1A1A2E"/>
<path d="M172.501 0.713501C164.225 1.32421 155.967 2.51382 147.785 4.28931L142 7.62921C140.347 8.58292 139.008 10.9039 139.008 12.8121L139.007 18.8672C139.007 20.7754 140.347 21.5491 141.999 20.5954L169.7 4.60204C170.99 3.85708 172.081 2.27869 172.501 0.713501Z" fill="#1A1A2E"/>
<path d="M83.118 179.835V173.78C83.118 171.872 81.7786 171.098 80.1257 172.053L52.4256 188.045C50.7727 189 49.4333 191.32 49.4333 193.228V199.283C49.4326 201.192 50.7719 201.965 52.4256 201.011L80.1257 185.018C81.7778 184.064 83.118 181.743 83.118 179.835Z" fill="#1A1A2E"/>
<path d="M119.157 222.749V216.694C119.157 214.786 117.817 214.012 116.165 214.966L88.4645 230.959C86.8116 231.913 85.4722 234.234 85.4722 236.142L85.4714 242.197C85.4714 244.105 86.8116 244.879 88.4637 243.924L116.165 227.932C117.817 226.978 119.157 224.657 119.157 222.749Z" fill="#1A1A2E"/>
<path d="M214.078 155.662L241.778 139.67C243.431 138.715 244.771 136.395 244.771 134.487V128.432C244.771 126.523 243.431 125.75 241.778 126.704L214.078 142.697C212.425 143.651 211.086 145.971 211.086 147.88V153.935C211.086 155.844 212.425 156.617 214.078 155.662Z" fill="#1A1A2E"/>
<path d="M232.622 160.833L260.323 144.839C261.975 143.886 263.315 141.565 263.315 139.656V133.601C263.315 131.693 261.975 130.919 260.323 131.873L232.622 147.866C230.969 148.82 229.63 151.14 229.63 153.049V159.104C229.629 161.013 230.969 161.786 232.622 160.833Z" fill="#1A1A2E"/>
<path d="M211.086 70.188V76.2431C211.086 78.1513 212.425 78.925 214.078 77.9705L241.778 61.9779C243.431 61.0234 244.771 58.7032 244.771 56.795V50.7399C244.771 48.8317 243.431 48.058 241.778 49.0125L214.078 65.0051C212.425 65.9596 211.086 68.2798 211.086 70.188Z" fill="#1A1A2E"/>
<path d="M229.876 12.5724C228.224 13.5261 226.884 15.8471 226.884 17.7553V23.8096C226.884 25.7178 228.223 26.4915 229.876 25.5378L251.872 12.8378C247.259 11.0173 242.582 9.39542 237.855 7.96448L229.876 12.5724Z" fill="#1A1A2E"/>
<path d="M224.282 43.1126L196.582 59.1052C194.929 60.0597 193.59 62.3799 193.59 64.2881V70.3433C193.59 72.2514 194.929 73.0243 196.582 72.0706L224.282 56.0773C225.935 55.1236 227.274 52.8033 227.274 50.8944V44.8392C227.274 42.9311 225.935 42.1582 224.282 43.1126Z" fill="#1A1A2E"/>
<path d="M263.315 69.9148C263.315 68.0066 261.975 67.2329 260.323 68.1874L232.622 84.18C230.969 85.1345 229.63 87.4547 229.63 89.3629V95.4181C229.63 97.3262 230.97 98.0999 232.622 97.1454L260.323 81.1521C261.975 80.1976 263.315 77.8773 263.315 75.9692V69.9148Z" fill="#1A1A2E"/>
<path d="M332.401 90.3283L304.701 106.321C303.048 107.275 301.709 109.596 301.708 111.504V117.559C301.708 119.467 303.047 120.241 304.7 119.286L332.401 103.294C334.053 102.34 335.393 100.019 335.393 98.1108V92.0557C335.393 90.1475 334.053 89.3738 332.401 90.3283Z" fill="#1A1A2E"/>
<path d="M332.002 74.6973L322.196 80.3784C320.544 81.3328 319.203 83.6531 319.203 85.5613V91.6164C319.203 93.5246 320.544 94.2975 322.196 93.3438L338.333 84.0038C336.221 80.6903 334.101 77.5793 332.002 74.6973Z" fill="#1A1A2E"/>
<path d="M191.235 117.516V111.462C191.235 109.554 189.896 108.78 188.243 109.734L160.543 125.726C158.89 126.681 157.551 129.001 157.551 130.909V136.964C157.551 138.872 158.89 139.646 160.543 138.692L188.243 122.7C189.896 121.745 191.235 119.424 191.235 117.516Z" fill="#1A1A2E"/>
<path d="M296.361 47.4147L268.661 63.4081C267.009 64.3618 265.669 66.6828 265.669 68.591V74.6453C265.669 76.5535 267.008 77.3272 268.661 76.3735L296.361 60.3801C298.015 59.4264 299.354 57.1054 299.354 55.1972V49.1421C299.354 47.2339 298.015 46.4602 296.361 47.4147Z" fill="#1A1A2E"/>
<path d="M169.699 168.25L141.999 184.243C140.347 185.197 139.007 187.518 139.007 189.426L139.006 195.481C139.006 197.389 140.347 198.163 141.999 197.208L169.699 181.216C171.352 180.261 172.692 177.942 172.692 176.033V169.978C172.692 168.069 171.352 167.296 169.699 168.25Z" fill="#1A1A2E"/>
<path d="M25.2872 284.144C26.9401 283.19 28.2795 280.87 28.2795 278.961V272.906C28.2795 270.998 26.9401 270.224 25.2872 271.179L12.4607 278.583C13.9405 282.085 15.5655 285.47 17.3417 288.731L25.2872 284.144Z" fill="#1A1A2E"/>
<path d="M283.165 106.334V112.389C283.165 114.297 284.504 115.071 286.157 114.117L313.858 98.1239C315.51 97.1695 316.85 94.8492 316.85 92.941V86.8859C316.85 84.9777 315.51 84.2048 313.858 85.1585L286.158 101.151C284.504 102.105 283.165 104.426 283.165 106.334Z" fill="#1A1A2E"/>
</g>
</svg>
