<svg width="388" height="388" viewBox="0 0 388 388" fill="none" xmlns="http://www.w3.org/2000/svg">
<path d="M379.666 189.479C375.646 147.808 354.717 106.234 336.663 83.2741C260.141 -14.0379 106.556 -13.8478 33.4028 108.375C12.769 142.849 -0.178567 219.493 15.1451 276.182C34.7554 348.733 112.033 376.99 197.968 376.322C278.26 375.698 341.393 340.789 365.032 292.563C379.824 262.386 383.685 231.15 379.666 189.479Z" fill="#37474F"/>
<path d="M33.4028 108.375C12.769 142.849 -0.178568 219.493 15.1451 276.182C18.5859 288.912 23.8084 300.273 30.5355 310.359L30.5363 310.36L115.857 261.107L188.569 219.133L359.385 120.527C359.385 120.527 359.384 120.525 359.383 120.524C352.272 105.755 344.218 92.8817 336.664 83.2748C260.142 -14.0379 106.556 -13.8478 33.4028 108.375Z" fill="#263238"/>
<g opacity="0.2">
<path d="M33.5426 166.918C35.1955 165.965 36.5348 163.645 36.5348 161.736V155.68C36.5348 153.772 35.1955 152.999 33.5426 153.953L13.7779 165.364C12.8668 170.047 12.059 174.845 11.3645 179.722L33.5426 166.918Z" fill="#1A1A2E"/>
<path d="M26.4905 122.162L33.542 118.092C35.1949 117.137 36.5342 114.817 36.5342 112.909V106.854C36.5342 105.839 36.1486 105.158 35.5456 104.875C34.8247 106.032 34.1085 107.196 33.4023 108.375C30.9812 112.421 28.6672 117.054 26.4905 122.162Z" fill="#1A1A2E"/>
<path d="M63.6096 68.9228L69.5817 65.475C71.2315 64.5221 72.5685 62.208 72.5732 60.3014C69.5243 63.0508 66.5359 65.9251 63.6096 68.9228Z" fill="#1A1A2E"/>
<path d="M36.5349 225.422V219.367C36.5349 217.459 35.1955 216.686 33.5426 217.639L8.68188 231.993C8.86502 236.176 9.15137 240.337 9.54713 244.459L33.5426 230.605C35.1955 229.65 36.5349 227.331 36.5349 225.422Z" fill="#1A1A2E"/>
<path d="M108.613 135.049V128.994C108.613 127.085 107.273 126.312 105.621 127.266L77.9205 143.26C76.2676 144.213 74.9283 146.534 74.9275 148.443V154.498C74.9275 156.406 76.2676 157.18 77.9197 156.225L105.621 140.232C107.273 139.277 108.613 136.957 108.613 135.049Z" fill="#1A1A2E"/>
<path d="M15.8557 278.619C16.44 280.619 17.0624 282.589 17.7352 284.52V280.736C17.7352 279.282 16.9561 278.494 15.8557 278.619Z" fill="#1A1A2E"/>
<path d="M16.0469 207.72C17.699 206.767 19.0391 204.446 19.0391 202.538V196.483C19.0391 194.575 17.699 193.801 16.0469 194.755L9.2856 198.658C8.94339 203.095 8.70205 207.563 8.5647 212.04L16.0469 207.72Z" fill="#1A1A2E"/>
<path d="M113.96 103.608L141.66 87.6159C143.313 86.6614 144.652 84.3411 144.652 82.4329V76.3778C144.652 74.4696 143.313 73.696 141.66 74.6504L113.96 90.643C112.307 91.5975 110.968 93.9177 110.968 95.8259V101.881C110.968 103.789 112.306 104.562 113.96 103.608Z" fill="#1A1A2E"/>
<path d="M132.503 204.308L160.204 188.315C161.856 187.361 163.196 185.04 163.196 183.132V177.077C163.196 175.169 161.856 174.395 160.204 175.35L132.503 191.342C130.851 192.296 129.511 194.617 129.511 196.525V202.58C129.511 204.489 130.851 205.262 132.503 204.308Z" fill="#1A1A2E"/>
<path d="M60.4249 86.6374L88.125 70.6448C89.7779 69.6903 91.1172 67.3701 91.1172 65.4619V59.4067C91.1172 57.4986 89.7779 56.7249 88.125 57.6794L60.4249 73.672C58.772 74.6264 57.4326 76.9467 57.4326 78.8549V84.91C57.4318 86.8182 58.772 87.5918 60.4249 86.6374Z" fill="#1A1A2E"/>
<path d="M110.968 133.724C110.968 135.632 112.307 136.406 113.96 135.452L141.66 119.46C143.313 118.506 144.652 116.185 144.652 114.277V108.222C144.652 106.314 143.313 105.541 141.66 106.494L113.96 122.487C112.307 123.441 110.968 125.762 110.968 127.67V133.724Z" fill="#1A1A2E"/>
<path d="M69.5816 211.726L41.8815 227.719C40.2286 228.673 38.8892 230.994 38.8892 232.902L38.8884 238.957C38.8884 240.865 40.2278 241.639 41.8807 240.684L69.5816 224.692C71.2344 223.737 72.5738 221.417 72.5738 219.509V213.454C72.5738 211.545 71.2344 210.772 69.5816 211.726Z" fill="#1A1A2E"/>
<path d="M180.501 13.7135C172.225 14.3242 163.967 15.5138 155.785 17.2893L150 20.6292C148.347 21.5829 147.008 23.9039 147.008 25.8121L147.007 31.8672C147.007 33.7754 148.347 34.5491 149.999 33.5954L177.7 17.602C178.99 16.8571 180.081 15.2787 180.501 13.7135Z" fill="#1A1A2E"/>
<path d="M91.118 192.835V186.78C91.118 184.872 89.7786 184.098 88.1257 185.053L60.4256 201.045C58.7727 202 57.4333 204.32 57.4333 206.228V212.283C57.4326 214.192 58.7719 214.965 60.4256 214.011L88.1257 198.018C89.7778 197.064 91.118 194.743 91.118 192.835Z" fill="#1A1A2E"/>
<path d="M127.157 235.749V229.694C127.157 227.786 125.817 227.012 124.165 227.966L96.4645 243.959C94.8116 244.913 93.4722 247.234 93.4722 249.142L93.4714 255.197C93.4714 257.105 94.8116 257.879 96.4637 256.924L124.165 240.932C125.817 239.978 127.157 237.657 127.157 235.749Z" fill="#1A1A2E"/>
<path d="M222.078 168.662L249.778 152.67C251.431 151.715 252.771 149.395 252.771 147.487V141.432C252.771 139.523 251.431 138.75 249.778 139.704L222.078 155.697C220.425 156.651 219.086 158.971 219.086 160.88V166.935C219.086 168.844 220.425 169.617 222.078 168.662Z" fill="#1A1A2E"/>
<path d="M240.622 173.833L268.323 157.839C269.975 156.886 271.315 154.565 271.315 152.656V146.601C271.315 144.693 269.975 143.919 268.323 144.873L240.622 160.866C238.969 161.82 237.63 164.14 237.63 166.049V172.104C237.629 174.013 238.969 174.786 240.622 173.833Z" fill="#1A1A2E"/>
<path d="M219.086 83.188V89.2431C219.086 91.1513 220.425 91.925 222.078 90.9705L249.778 74.9779C251.431 74.0234 252.771 71.7032 252.771 69.795V63.7399C252.771 61.8317 251.431 61.058 249.778 62.0125L222.078 78.0051C220.425 78.9596 219.086 81.2798 219.086 83.188Z" fill="#1A1A2E"/>
<path d="M237.876 25.5724C236.224 26.5261 234.884 28.8471 234.884 30.7553V36.8096C234.884 38.7178 236.223 39.4915 237.876 38.5378L259.872 25.8378C255.259 24.0173 250.582 22.3954 245.855 20.9645L237.876 25.5724Z" fill="#1A1A2E"/>
<path d="M232.282 56.1126L204.582 72.1052C202.929 73.0597 201.59 75.3799 201.59 77.2881V83.3433C201.59 85.2514 202.929 86.0243 204.582 85.0706L232.282 69.0773C233.935 68.1236 235.274 65.8033 235.274 63.8944V57.8392C235.274 55.9311 233.935 55.1582 232.282 56.1126Z" fill="#1A1A2E"/>
<path d="M271.315 82.9148C271.315 81.0066 269.975 80.2329 268.323 81.1874L240.622 97.18C238.969 98.1345 237.63 100.455 237.63 102.363V108.418C237.63 110.326 238.97 111.1 240.622 110.145L268.323 94.1521C269.975 93.1976 271.315 90.8773 271.315 88.9692V82.9148Z" fill="#1A1A2E"/>
<path d="M340.401 103.328L312.701 119.321C311.048 120.275 309.709 122.596 309.708 124.504V130.559C309.708 132.467 311.047 133.241 312.7 132.286L340.401 116.294C342.053 115.34 343.393 113.019 343.393 111.111V105.056C343.393 103.147 342.053 102.374 340.401 103.328Z" fill="#1A1A2E"/>
<path d="M340.002 87.6973L330.196 93.3784C328.544 94.3328 327.203 96.6531 327.203 98.5613V104.616C327.203 106.525 328.544 107.297 330.196 106.344L346.333 97.0038C344.221 93.6903 342.101 90.5793 340.002 87.6973Z" fill="#1A1A2E"/>
<path d="M199.235 130.516V124.462C199.235 122.554 197.896 121.78 196.243 122.734L168.543 138.726C166.89 139.681 165.551 142.001 165.551 143.909V149.964C165.551 151.872 166.89 152.646 168.543 151.692L196.243 135.7C197.896 134.745 199.235 132.424 199.235 130.516Z" fill="#1A1A2E"/>
<path d="M304.361 60.4147L276.661 76.4081C275.009 77.3618 273.669 79.6828 273.669 81.591V87.6453C273.669 89.5535 275.008 90.3272 276.661 89.3735L304.361 73.3801C306.015 72.4264 307.354 70.1054 307.354 68.1972V62.1421C307.354 60.2339 306.015 59.4602 304.361 60.4147Z" fill="#1A1A2E"/>
<path d="M177.699 181.25L149.999 197.243C148.347 198.197 147.007 200.518 147.007 202.426L147.006 208.481C147.006 210.389 148.347 211.163 149.999 210.208L177.699 194.216C179.352 193.261 180.692 190.942 180.692 189.033V182.978C180.692 181.069 179.352 180.296 177.699 181.25Z" fill="#1A1A2E"/>
<path d="M33.2872 297.144C34.9401 296.19 36.2795 293.87 36.2795 291.961V285.906C36.2795 283.998 34.9401 283.224 33.2872 284.179L20.4607 291.583C21.9405 295.085 23.5655 298.47 25.3417 301.731L33.2872 297.144Z" fill="#1A1A2E"/>
<path d="M291.165 119.334V125.389C291.165 127.297 292.504 128.071 294.157 127.117L321.858 111.124C323.51 110.169 324.85 107.849 324.85 105.941V99.8859C324.85 97.9777 323.51 97.2048 321.858 98.1585L294.158 114.151C292.504 115.105 291.165 117.426 291.165 119.334Z" fill="#1A1A2E"/>
</g>
<path opacity="0.15" d="M131.525 313.759C131.221 313.583 130.899 313.426 130.567 313.277L130.684 313.21L76.3706 283.491V263.491L64.1455 270.544V290.544L114.537 318.117C114.649 319.496 115.605 320.871 117.44 321.923C121.321 324.175 127.63 324.175 131.526 321.923C133.48 320.802 134.451 319.316 134.451 317.835C134.45 316.366 133.479 314.88 131.525 313.759Z" fill="#1A1A2E"/>
<path opacity="0.15" d="M115.576 323.38C115.272 323.204 114.95 323.047 114.618 322.898L114.735 322.83L60.4216 293.112V273.112L48.1965 280.165V300.165L98.5884 327.737C98.7002 329.117 99.6562 330.491 101.49 331.544C105.371 333.796 111.68 333.796 115.576 331.544C117.53 330.423 118.501 328.936 118.501 327.456C118.501 325.987 117.53 324.501 115.576 323.38Z" fill="#1A1A2E"/>
<path opacity="0.15" d="M300.449 358.729C295.902 355.849 290.073 353.377 283.128 351.387C275.321 349.15 266.09 347.509 259.449 344.803C250.818 341.285 246.957 336.079 246.696 330.306C246.548 327.036 247.94 323.181 254.912 319.725C256.697 318.841 258.904 317.984 261.346 317.501C264.933 316.793 268.17 317.037 270.804 317.428C284.86 319.511 291.496 324.924 296.907 330.336C302.318 335.747 308.321 338.459 319.018 342.733C323.596 344.562 328.474 346.294 332.822 348.187C332.857 348.203 332.893 348.218 332.928 348.233C335.125 349.197 337.513 350.039 339.297 351.157C342.142 352.942 344.694 354.839 345.953 357.06C347.212 359.282 347.128 361.854 344.788 364.598C344.186 365.304 343.378 366.056 341.901 366.694C340.653 367.234 339.048 367.636 337.484 367.921C334.296 368.503 331.155 368.656 328.463 368.53C325.77 368.405 323.484 368.013 321.359 367.559C312.094 365.578 305.877 362.169 300.449 358.729Z" fill="#1A1A2E"/>
<path d="M74.1552 260.571L78.1407 262.872L70.1526 276.706L66.1593 274.401V274.4C65.1373 273.81 64.5056 272.544 64.5056 270.744C64.5056 267.142 67.0346 262.762 70.1541 260.961C71.7178 260.059 73.1324 259.976 74.1552 260.571Z" fill="#273B44"/>
<path d="M68.499 273.05C68.499 269.448 71.028 265.069 74.1475 263.267C77.267 261.466 79.7953 262.925 79.7953 266.527C79.7953 270.13 77.2663 274.509 74.1468 276.31C71.0272 278.112 68.499 276.651 68.499 273.05Z" fill="#263238"/>
<g opacity="0.3">
<path d="M70.1533 272.094C70.1533 269.548 71.9412 266.45 74.1466 265.177C76.3528 263.904 78.1407 264.936 78.1399 267.483C78.1399 270.03 76.352 273.126 74.1458 274.4C71.9412 275.673 70.1533 274.641 70.1533 272.094Z" fill="#1A1A2E"/>
</g>
<g opacity="0.3">
<path d="M75.3168 265.852C75.3168 268.4 73.5281 271.496 71.3228 272.77C70.9673 272.975 70.6298 273.099 70.3015 273.188C70.2146 272.86 70.1533 272.505 70.1533 272.094C70.1533 269.548 71.9412 266.451 74.1466 265.177C74.502 264.972 74.8404 264.847 75.1686 264.759C75.2555 265.087 75.3168 265.443 75.3168 265.852Z" fill="#1A1A2E"/>
</g>
<path d="M71.3238 274.687L118.14 301.747C118.579 302.001 118.85 302.469 118.85 302.976V306.893L118.851 318.987H130.15V305.094H130.146V301.486C130.146 297.864 128.213 294.516 125.077 292.705L76.9746 264.903C76.2514 264.481 75.2512 264.539 74.1461 265.177C71.9407 266.451 70.1528 269.548 70.1528 272.094C70.1528 273.37 70.6021 274.265 71.3269 274.681L71.3238 274.687Z" fill="#273B44"/>
<path d="M130.148 302.02C130.148 301.216 130.047 300.428 129.865 299.665C129.905 299.974 130.028 302.129 125.873 303.511C121.389 305.001 118.851 303.511 118.851 303.511V307.427L118.851 318.988H130.15V305.628H130.147V302.02H130.148Z" fill="#37474F"/>
<g opacity="0.3">
<path d="M71.3235 274.687L118.14 301.747C118.579 302.001 118.85 302.469 118.85 302.976V306.892L118.85 318.987H123.038V307.048H123.036V305.496C123.036 301.874 121.103 298.526 117.967 296.715L70.7671 269.433C70.4125 270.327 70.1533 271.235 70.1533 272.094C70.1533 273.37 70.6026 274.265 71.3274 274.681L71.3235 274.687Z" fill="#1A1A2E"/>
</g>
<path d="M132.498 312.567V317.181C132.498 318.371 131.717 319.562 130.147 320.462C127.015 322.274 121.941 322.274 118.82 320.462C117.248 319.562 116.468 318.371 116.468 317.19V312.567H118.85C118.85 313.137 119.09 313.697 119.6 314.198C119.661 314.258 119.72 314.318 119.79 314.378C119.991 314.548 120.21 314.718 120.481 314.878C122.692 316.16 126.275 316.16 128.486 314.878C128.756 314.718 128.977 314.548 129.177 314.378C129.247 314.318 129.306 314.258 129.367 314.198C129.878 313.697 130.148 313.137 130.148 312.567H132.498V312.567Z" fill="#263238"/>
<path d="M132.498 312.567C132.498 313.749 131.717 314.939 130.147 315.84C127.015 317.641 121.941 317.641 118.82 315.84C117.248 314.939 116.468 313.749 116.468 312.567C116.468 311.386 117.249 310.196 118.82 309.295C118.83 309.285 118.84 309.285 118.849 309.275V312.567C118.849 313.138 119.09 313.698 119.599 314.199C119.66 314.259 119.72 314.319 119.79 314.379C119.99 314.549 120.209 314.719 120.48 314.879C122.691 316.16 126.274 316.16 128.485 314.879C128.755 314.719 128.976 314.549 129.176 314.379C129.246 314.319 129.306 314.258 129.366 314.199C129.877 313.698 130.147 313.138 130.147 312.567V309.295C131.717 310.196 132.498 311.386 132.498 312.567Z" fill="#273B44"/>
<path d="M57.8461 269.992L61.8309 272.293L53.8435 286.127L49.8502 283.821V283.821C48.8282 283.231 48.1965 281.965 48.1965 280.164C48.1965 276.562 50.7255 272.183 53.845 270.381C55.4079 269.479 56.8233 269.396 57.8461 269.992Z" fill="#273B44"/>
<path d="M52.1897 282.47C52.1897 278.869 54.7187 274.489 57.8382 272.687C60.9577 270.886 63.4859 272.346 63.4852 275.948C63.4852 279.55 60.9562 283.93 57.8366 285.731C54.7179 287.532 52.1897 286.072 52.1897 282.47Z" fill="#263238"/>
<g opacity="0.3">
<path d="M53.8442 281.515C53.8442 278.968 55.6321 275.871 57.8375 274.598C60.0437 273.324 61.8308 274.356 61.8308 276.903C61.8308 279.45 60.0429 282.547 57.8368 283.82C55.6321 285.094 53.8442 284.062 53.8442 281.515Z" fill="#1A1A2E"/>
</g>
<g opacity="0.3">
<path d="M59.007 275.273C59.007 277.82 57.2191 280.917 55.0137 282.19C54.6583 282.395 54.3199 282.52 53.9925 282.608C53.9055 282.28 53.8442 281.925 53.8442 281.515C53.8442 278.968 55.6321 275.871 57.8375 274.598C58.1929 274.393 58.5313 274.268 58.8587 274.179C58.9457 274.508 59.007 274.862 59.007 275.273Z" fill="#1A1A2E"/>
</g>
<path d="M55.0154 284.108L101.831 311.167C102.271 311.421 102.541 311.89 102.541 312.397V316.314L102.542 327.875H113.84V314.515H113.837V310.907C113.837 307.284 111.905 303.937 108.768 302.126L60.6663 274.324C59.943 273.902 58.9435 273.959 57.8377 274.598C55.6323 275.872 53.8452 278.969 53.8452 281.516C53.8452 282.792 54.2937 283.686 55.0193 284.102L55.0154 284.108Z" fill="#273B44"/>
<path d="M113.838 310.907C113.838 310.103 113.737 309.314 113.555 308.552C113.595 308.86 113.718 311.015 109.563 312.397C105.079 313.888 102.541 312.397 102.541 312.397V316.314L102.541 327.875H113.84V314.515H113.837L113.838 310.907Z" fill="#37474F"/>
<g opacity="0.3">
<path d="M55.0152 284.108L101.831 311.168C102.271 311.421 102.541 311.89 102.541 312.398V316.314L102.541 327.875H106.729V316.468H106.726V314.916C106.726 311.294 104.793 307.946 101.657 306.135L54.4565 278.853C54.1026 279.747 53.8442 280.655 53.8442 281.514C53.8442 282.79 54.2928 283.685 55.0183 284.101L55.0152 284.108Z" fill="#1A1A2E"/>
</g>
<path d="M116.189 321.988V326.601C116.189 327.792 115.408 328.983 113.837 329.883C110.705 331.694 105.632 331.694 102.509 329.883C100.938 328.982 100.158 327.792 100.158 326.611V321.987H102.54C102.54 322.558 102.78 323.118 103.29 323.618C103.35 323.679 103.41 323.739 103.48 323.798C103.68 323.968 103.901 324.138 104.171 324.299C106.382 325.58 109.965 325.58 112.176 324.299C112.446 324.138 112.667 323.968 112.867 323.798C112.936 323.739 112.996 323.678 113.057 323.618C113.566 323.118 113.837 322.558 113.837 321.987H116.189V321.988Z" fill="#263238"/>
<path d="M116.189 321.988C116.189 323.169 115.408 324.36 113.837 325.261C110.705 327.062 105.632 327.062 102.509 325.261C100.938 324.36 100.158 323.169 100.158 321.988C100.158 320.807 100.938 319.617 102.509 318.716C102.519 318.706 102.529 318.706 102.54 318.696V321.988C102.54 322.558 102.78 323.119 103.29 323.619C103.35 323.68 103.41 323.74 103.48 323.799C103.68 323.969 103.901 324.139 104.171 324.3C106.382 325.581 109.965 325.581 112.176 324.3C112.446 324.139 112.667 323.969 112.867 323.799C112.936 323.74 112.996 323.679 113.057 323.619C113.566 323.119 113.837 322.558 113.837 321.988V318.716C115.408 319.617 116.189 320.807 116.189 321.988Z" fill="#273B44"/>
<path d="M187.364 92.2499C187.364 68.1916 178.918 51.2872 165.264 43.4046C151.609 35.522 132.746 36.6619 111.911 48.6915C70.2396 72.7513 36.458 131.263 36.458 179.379C36.458 203.437 44.9032 220.342 58.5577 228.224C72.2122 236.107 91.0752 234.967 111.911 222.938C153.582 198.878 187.364 140.367 187.364 92.2499Z" fill="#FFC107"/>
<path opacity="0.95" d="M187.364 92.2499C187.364 68.1916 178.918 51.2872 165.264 43.4046C151.609 35.522 132.746 36.6619 111.911 48.6915C70.2396 72.7513 36.458 131.263 36.458 179.379C36.458 203.437 44.9032 220.342 58.5577 228.224C72.2122 236.107 91.0752 234.967 111.911 222.938C153.582 198.878 187.364 140.367 187.364 92.2499Z" fill="white"/>
<g opacity="0.2">
<path d="M69.5814 211.726L51.0327 222.435C53.3173 224.713 55.8315 226.652 58.5568 228.226C59.3941 228.709 60.2516 229.158 61.1269 229.573L69.5807 224.692C71.2335 223.738 72.5729 221.418 72.5729 219.51V213.454C72.5737 211.545 71.2343 210.772 69.5814 211.726Z" fill="#FFC107"/>
<path d="M110.968 101.881C110.968 103.789 112.307 104.563 113.96 103.608L141.66 87.6159C143.313 86.6614 144.653 84.3411 144.653 82.4329V76.3778C144.653 74.4696 143.313 73.696 141.66 74.6504L113.96 90.643C112.307 91.5975 110.968 93.9177 110.968 95.8259V101.881Z" fill="#FFC107"/>
<path d="M141.66 106.493L113.96 122.485C112.307 123.439 110.968 125.76 110.968 127.668V133.723C110.968 135.632 112.307 136.405 113.96 135.451L141.66 119.459C143.313 118.505 144.653 116.184 144.653 114.276V108.221C144.653 106.313 143.313 105.539 141.66 106.493Z" fill="#FFC107"/>
<path d="M91.1179 65.4618V64.0494C87.2371 67.5717 83.4867 71.3725 79.8892 75.4L88.1256 70.6447C89.7777 69.6902 91.1179 67.3699 91.1179 65.4618Z" fill="#FFC107"/>
<path d="M159.702 175.64L132.503 191.343C130.851 192.297 129.511 194.618 129.511 196.526V202.581C129.511 204.489 130.851 205.263 132.503 204.309L141.053 199.372C147.829 192.181 154.101 184.173 159.702 175.64Z" fill="#FFC107"/>
<path d="M168.543 138.726C166.89 139.681 165.551 142.001 165.551 143.909V149.964C165.551 151.872 166.89 152.646 168.543 151.692L174.555 148.221C176.938 142.757 179.027 137.215 180.791 131.655L168.543 138.726Z" fill="#FFC107"/>
<path d="M91.118 192.835V186.78C91.118 184.872 89.7786 184.098 88.1257 185.053L60.4256 201.045C58.7727 202 57.4333 204.32 57.4333 206.228V212.283C57.4326 214.192 58.7719 214.965 60.4256 214.011L88.1265 198.018C89.7778 197.064 91.118 194.743 91.118 192.835Z" fill="#FFC107"/>
<path d="M105.621 127.266L77.9205 143.26C76.2676 144.213 74.9283 146.534 74.9275 148.443V154.498C74.9275 156.406 76.2676 157.18 77.9197 156.225L105.621 140.232C107.273 139.278 108.613 136.958 108.613 135.05V128.994C108.613 127.085 107.273 126.312 105.621 127.266Z" fill="#FFC107"/>
</g>
<path opacity="0.2" d="M235.487 206.878L86.476 232.547V232.539C75.8759 234.285 66.3621 232.733 58.5556 228.225C44.9057 220.341 36.4551 203.439 36.4551 179.383C36.4551 131.264 70.2421 72.7531 111.913 48.6893C132.749 36.6613 151.613 35.5206 165.263 43.4048C173.07 47.9133 179.169 55.3707 182.964 65.4277L182.972 65.4199L235.487 206.878Z" fill="#FFC107"/>
<path opacity="0.2" d="M235.487 206.878L86.476 232.547V232.539C75.8759 234.285 66.3621 232.733 58.5556 228.225C44.9057 220.341 36.4551 203.439 36.4551 179.383C36.4551 131.264 70.2421 72.7531 111.913 48.6893C132.749 36.6613 151.613 35.5206 165.263 43.4048C173.07 47.9133 179.169 55.3707 182.964 65.4277L182.972 65.4199L235.487 206.878Z" fill="white"/>
<path d="M335.911 202.691L328.349 184.759C324.734 175.514 326.095 163.02 326.095 163.02C330.448 162.94 334.528 164.418 337.347 169.528C340.167 174.638 345.744 192.843 347.022 196.76C348.331 201.178 348.641 202.914 348.88 207.287C349.128 211.845 347.966 220.247 347.666 224.785C347.527 226.885 347.545 228.899 347.553 231.022C347.561 233.235 346.994 235.365 346.699 237.559C346.562 238.573 346.056 239.591 345.415 240.385C344.994 240.907 344.328 241.077 343.927 241.569C343.512 242.079 343.539 242.778 342.941 243.229C342.276 243.731 341.391 243.656 340.82 244.152C340.222 244.67 339.763 245.349 339.079 245.81C338.463 246.226 337.988 246.434 337.582 247.089C337.249 247.626 337.033 248.727 336.264 248.792C335.402 248.864 335.115 248.07 334.94 247.371C334.632 246.137 335.019 244.434 335.581 243.312C336.234 242.01 336.575 240.574 337.376 239.351C338.102 238.244 338.369 236.758 338.52 235.438C338.625 234.516 338.337 233.411 337.302 234.13C336.083 234.978 334.911 236.506 333.266 236.527C332.127 236.541 331.906 235.684 332.415 234.838C333.268 233.422 333.966 232.026 334.609 230.49C335.248 228.961 335.719 227.379 336.399 225.873C336.753 225.09 337.208 224.323 337.667 223.587C338.951 221.53 338.444 219.139 338.215 216.874C337.898 213.713 336.603 206.701 335.911 202.691Z" fill="#E6A364"/>
<path d="M325.355 162.314C331.488 162.771 334.919 164.035 338.196 170.043C341.473 176.05 345.842 190.66 346.798 193.664C347.754 196.668 348.713 200.07 349.087 204.876C349.373 208.561 349.132 211.444 349.132 211.444C349.132 211.444 348.3 213.052 343.385 213.052C338.469 213.052 337.022 212.188 337.022 212.188L335.465 202.811L325.354 180.556V162.314H325.355Z" fill="#273B44"/>
<path d="M253.737 326.807C253.24 326.59 252.826 327.841 252.95 328.546C253.308 330.571 255.251 333.252 258.711 335.279C262.17 337.305 269.777 338.678 272.014 339.308C274.252 339.938 277.7 342.29 279.787 343.357C283.587 345.298 286.691 345.075 288.419 344.21C289.097 343.872 289.388 343.142 289.579 342.495C290.033 340.958 289.999 340.607 289.825 340.565L253.737 326.807Z" fill="#263238"/>
<path d="M290.825 335.981C290.666 337.575 290.107 340.139 289.402 341.59C288.571 342.575 287.122 342.819 286.028 342.81C283.141 342.785 280.622 341.796 277.936 340.249C276.326 339.321 274.571 338.316 272.458 337.76C270.137 337.148 264.941 336.034 262.643 335.324C260.691 334.722 258.327 333.521 256.805 332.113C255.52 330.923 253.732 328.628 253.601 327.293C253.99 324.393 254.797 322.852 256.675 322.435C258.66 321.993 261.106 322.57 264.48 323.385C265.491 323.629 266.753 323.974 267.299 324.086C269.364 324.511 271.276 324.964 272.819 325.356C274.141 325.693 275.44 326.007 276.809 325.747C277.461 325.623 277.977 325.446 278.421 324.954C278.963 324.354 279.286 323.329 279.917 323.469C279.917 323.469 290.577 329.031 291.46 329.419C292.478 329.866 291.303 331.149 290.825 335.981Z" fill="#37474F"/>
<path d="M253.601 327.292C253.774 325.277 254.482 322.634 256.858 322.318C260.413 321.837 263.886 323.291 267.299 324.086L263.156 323.134C258.376 322.132 254.325 321.012 253.601 327.292Z" fill="white"/>
<path d="M266.46 323.7C266.061 323.812 265.579 324.161 265.31 324.418C264.94 324.77 264.644 325.127 264.369 325.559C264.033 326.087 264.706 326.43 265.196 325.859C265.532 325.469 265.891 325.019 266.511 324.555C266.807 324.333 267.378 324.102 267.716 324.172C267.971 324.226 268.306 324.297 268.306 324.297C268.29 323.821 266.99 323.552 266.46 323.7Z" fill="#FAFAFA"/>
<path d="M271.741 324.75C271.353 324.575 270.989 324.577 270.576 324.73C270.088 324.912 269.709 325.266 269.392 325.663C269.135 325.986 268.559 326.84 268.389 327.219C268.228 327.576 269.103 327.844 269.328 327.472C269.55 327.104 269.978 326.429 270.273 326.064C270.455 325.84 271.22 325.014 271.851 325.111L272.128 325.183C272.171 325.055 272.028 324.911 271.917 324.844C271.861 324.809 271.802 324.778 271.741 324.75Z" fill="#FAFAFA"/>
<path d="M274.755 325.628C274.432 325.637 274.24 325.611 273.971 325.796C273.717 325.971 273.39 326.28 273.216 326.539C272.737 327.255 272.6 327.61 272.364 328.277C272.197 328.75 273.105 328.904 273.237 328.596C273.655 327.621 273.868 326.964 274.581 326.385C275.17 325.907 275.584 325.841 275.584 325.841C275.588 325.748 275.463 325.696 275.375 325.682C275.236 325.662 274.895 325.624 274.755 325.628Z" fill="#FAFAFA"/>
<path d="M295.679 317.585C295.679 317.585 292.332 327.741 291.313 330.058C290.987 330.799 289.44 330.637 288.589 330.72C287.739 330.803 286.395 330.937 285.549 331.367C283.044 332.638 281.473 332.618 281.397 328.949C281.382 328.198 281.042 327.766 280.124 327.646C279.438 327.556 278.686 327.63 278.077 327.289C277.998 327.191 278.108 327.056 278.208 326.978C278.977 326.394 279.399 326.002 279.736 324.595C280.781 320.246 281.323 316.501 282.461 311.162L295.679 317.585Z" fill="#E6A364"/>
<path d="M303.738 217.111C303.738 217.111 298.627 223.236 295.537 234.691C291.786 248.597 290.335 259.293 289.161 267.054C288.424 271.931 287.881 275.412 286.556 284.294C285.451 291.694 280.591 319.209 280.591 319.209C280.591 319.209 284.155 322.294 287.153 323.427C289.944 324.483 292.526 324.904 293.551 324.483C293.551 324.483 296.99 315.653 301.245 304.092C303.922 296.822 305.398 291.568 306.143 287.769C306.699 284.91 306.564 279.821 306.51 277.252L329.371 241.937C329.371 241.937 331.651 239.563 333.639 234.572C336.646 227.025 332.807 216.149 332.807 216.149L303.738 217.111Z" fill="#263238"/>
<path d="M295.538 234.691C291.892 248.318 289.914 262.923 287.87 276.896C285.774 290.598 283.02 305.513 280.592 319.209C282.733 305.444 285.493 290.572 287.488 276.839C289.64 262.872 291.6 248.26 295.538 234.691Z" fill="white"/>
<path d="M326.238 227.025H298.159C297.233 229.23 296.32 231.788 295.537 234.691C292.182 247.127 290.668 256.989 289.546 264.488C290.229 269.084 291.002 273.798 291.718 277.051C293.604 285.615 294.783 291.666 296.276 295.201C297.766 298.73 301.352 303.738 301.366 303.758C303.963 296.666 305.412 291.507 306.144 287.769C306.701 284.909 306.566 279.82 306.511 277.251L323.115 251.602L324.407 243.655C328.649 236.741 328.177 231.555 326.238 227.025Z" fill="#1A1A2E"/>
<path d="M336.053 333.587C334.611 331.281 333.831 326.841 330.659 317.82L318.314 327.941L325.634 339.574C326.017 340.232 326.031 341.223 326.165 341.416C327.735 343.676 336.053 333.587 336.053 333.587Z" fill="#E6A364"/>
<path d="M340.41 338.505C340.392 338.372 340.463 337.285 340.429 337.155C340.123 335.984 339.4 335.66 338.471 335.006C337.319 334.195 336.203 333.224 335.908 332.815C335.597 332.383 335.537 332.161 335.054 331.964C334.232 331.63 332.909 331.603 331.28 332.459C328.612 333.861 327.797 335.549 327.951 337.378C328.068 338.774 328.184 340.629 326.954 341.459C326.442 341.804 325.634 339.574 325.634 339.574C324.875 340.846 325.941 342.605 326.497 345.18C326.878 346.947 326.785 347.715 326.572 349.51C326.302 351.771 325.989 351.762 324.789 351.919C323.756 352.055 320.823 351.859 319.039 353.104C316.581 354.821 317.238 357.106 317.238 357.106C317.556 357.975 320.229 362.19 329.998 360.616C332.831 360.16 338.783 355.705 338.692 355.289C338.607 354.902 338.701 354.4 338.715 354.01C338.749 353.011 338.791 352.013 338.836 351.014C338.875 350.104 338.783 349.046 339.002 348.161C339.196 347.374 339.289 346.62 339.366 345.801C339.553 343.796 339.74 341.791 339.926 339.786C339.978 339.207 340.488 339.075 340.41 338.505Z" fill="#37474F"/>
<path d="M341.64 338.109C342.603 339.041 342.017 341.746 340.726 344.992C340.153 346.432 339.086 348.911 339.399 351.547C339.713 354.181 339.768 355.427 339.089 356.661C338.026 358.593 332.348 361.066 329.001 361.839C329.001 361.839 332.067 357.99 332.404 352.174C332.74 346.358 333.184 342.609 335.843 340.03C339.206 336.768 341.64 338.109 341.64 338.109Z" fill="#1A1A2E"/>
<path d="M317.237 357.105C317.237 357.105 319.196 360.775 326.753 360.655C329.727 360.608 331.319 359.159 331.393 354.637C331.482 349.188 331.92 343.684 333.682 340.979C335.445 338.274 338.251 336.962 340.43 337.155C340.808 337.215 341.286 337.576 341.641 338.109C341.641 338.109 339.461 337.393 336.071 340.207C333.567 342.284 332.891 346.624 332.929 352.012C332.945 354.331 333.086 356.961 332.407 358.72C331.78 360.342 330.393 361.453 328.798 361.901C324.689 363.055 319.067 361.153 317.645 359.416C316.828 358.259 317.237 357.105 317.237 357.105Z" fill="#263238"/>
<path d="M326.314 350.929C326.314 350.929 325.763 351.318 325.703 351.831C325.643 352.343 325.82 353.527 326.893 354.197C327.348 354.481 327.745 354.381 327.022 353.426C326.3 352.472 326.314 350.929 326.314 350.929Z" fill="#FAFAFA"/>
<path d="M326.721 348.109C326.721 348.109 326.481 348.264 326.421 349.021C326.388 349.427 327.02 351.062 327.815 351.453C328.611 351.842 328.18 350.926 327.835 350.476C327.457 349.981 326.791 348.859 326.721 348.109Z" fill="#FAFAFA"/>
<path d="M326.453 344.992C326.453 344.992 326.195 345.064 326.471 346.107C326.564 346.458 327.605 347.491 328.118 347.552C328.631 347.614 328.88 347.358 328.251 346.901C327.754 346.542 326.549 345.498 326.453 344.992Z" fill="#FAFAFA"/>
<path d="M321.474 217.111C322.808 218.478 326.131 223.06 326.673 230.113C326.903 233.099 326.053 238.729 322.564 242.965C321.497 258.609 320.48 288.145 320.48 288.145C324.111 293.273 325.031 296.563 327.424 304.193C328.877 308.825 333.908 327.207 333.908 327.207C326.549 328.314 322.081 334.785 322.081 334.785C322.081 334.785 311.881 318.357 305.096 306.923C300.134 298.56 298.429 294.956 296.764 290.213C295.235 285.855 294.129 280.577 292.638 270.397C291.148 260.218 289.687 246.812 288.958 236.792C288.228 226.771 288.648 216.296 288.648 216.296L321.474 217.111Z" fill="#263238"/>
<path d="M322.082 334.785C318.563 329.217 311.618 318.008 308.213 312.377C303.748 304.829 298.775 297.426 296.182 288.961C294.062 280.419 292.586 271.746 291.505 263.019C290.413 254.301 289.539 245.556 288.958 236.79C289.313 241.168 289.744 245.539 290.224 249.904C291.61 262.983 293.297 276.099 296.553 288.856C299.087 297.275 304.025 304.708 308.432 312.245L322.082 334.785Z" fill="white"/>
<path d="M334.736 229.372C333.721 229.081 332.278 228.111 331.732 227.239C331.405 226.715 331.207 225.969 330.956 225.024C330.682 223.994 330.342 222.71 329.694 221.265L328.921 221.61C329.54 222.994 329.858 224.188 330.137 225.242C330.407 226.255 330.618 227.055 331.014 227.687C331.662 228.724 333.34 229.899 334.663 230.215C334.692 229.935 334.718 229.654 334.736 229.372Z" fill="#1A1A2E"/>
<path d="M314.644 238.337C314.859 238.331 315.043 238.313 315.185 238.282C316.413 238.011 317.368 237.187 319.269 234.755C320.717 232.902 320.568 231.572 320.324 229.368C320.234 228.56 319.382 224.235 319.328 223.094L318.516 223.546C318.571 224.712 319.391 228.641 319.482 229.462C319.725 231.652 319.835 232.652 318.601 234.232C316.842 236.481 316.002 237.234 315.002 237.455C314.033 237.674 309.739 236.962 308.594 236.171C307.934 235.711 306.827 230.058 306.18 225.083L305.341 225.193C305.667 227.708 306.833 235.982 308.112 236.867C309.249 237.652 312.938 238.381 314.644 238.337Z" fill="#1A1A2E"/>
<path d="M306.44 157.751L307.986 169.069L323.359 168.286L321.696 156.03L306.44 157.751Z" fill="#E6A364"/>
<path d="M300.319 136.589C299.138 138.091 295.525 142.172 294.88 143.239L298.322 145.331L300.319 136.589Z" fill="#F28F8F"/>
<path d="M300.319 136.588C298.749 138.997 296.751 141.069 294.88 143.238C296.324 140.752 298.343 138.66 300.319 136.588Z" fill="white"/>
<path d="M308.867 125.208C304.116 124.697 301.035 128.064 299.655 138.174C299.601 138.57 299.015 139.192 298.571 140.704C296.667 147.193 297.732 153.371 298.829 155.015C301.582 157.228 304.641 158.053 309.073 157.676C312.452 157.389 321.066 156.363 325.436 151.802C330.575 146.436 333.17 138.349 329.52 134.153C324.383 128.248 311.484 125.489 308.867 125.208Z" fill="#E6A364"/>
<path d="M308.867 125.207C301.724 124.61 300.736 133.333 299.718 138.566C297.77 142.255 297.471 146.689 297.772 150.794C297.931 152.233 298.124 153.722 298.828 155.014C298.066 153.75 297.806 152.259 297.584 150.815C297.147 146.659 297.414 142.163 299.371 138.399C300.311 133.141 301.689 124.268 308.867 125.207Z" fill="white"/>
<path d="M298.828 155.015C299.436 155.923 303.786 158.155 306.519 158.328L306.261 156.202C306.261 156.202 302.569 156.188 298.828 155.015Z" fill="#F28F8F"/>
<path d="M307.928 142.926C308.258 143.699 309.042 143.768 309.515 143.188C310.084 142.493 310.529 141.743 311.249 141.179C312.082 140.527 313.132 140.107 314.185 140.187C318.173 140.49 317.2 145.743 315.242 147.571C312.038 150.563 310.336 147.979 310.336 147.979C310.336 147.979 308.036 153.06 311.389 156.029C311.389 156.029 317.176 158.531 321.721 157.12C325.122 153.456 327.397 151.144 329.684 147.993C335.1 140.524 335.108 133.141 331.634 131.028C331.83 128.378 330.395 124.395 324.954 122.095C319.768 119.903 316.298 120.12 312.549 120.329C308.8 120.538 304.191 122.248 300.712 119.339C299.839 121.425 300.062 123.934 301.288 125.834C300.181 125.336 298.724 125.87 298.201 126.964C297.676 128.058 298.173 129.528 299.254 130.079C298.488 130.459 298.131 131.462 298.405 132.273C298.68 133.084 299.501 133.65 300.355 133.713C301.258 133.779 301.822 133.692 302.711 133.562C303.804 136.625 307.26 137.696 309.314 137.566C309.256 137.555 308.99 137.986 308.952 138.042C308.835 138.213 308.726 138.39 308.626 138.572C308.427 138.936 308.262 139.319 308.136 139.714C307.883 140.505 307.78 141.344 307.845 142.172C307.866 142.433 307.824 142.68 307.928 142.926Z" fill="#273B44"/>
<path d="M300.71 119.339C299.886 121.442 300.127 123.919 301.348 125.794L301.482 125.999L301.257 125.9C298.523 124.886 296.791 128.516 299.288 130.009L299.425 130.081L299.287 130.148C297.341 131.392 298.769 133.865 300.851 133.702C301.472 133.725 302.092 133.643 302.711 133.563C301.79 133.71 300.839 133.881 299.91 133.685C298.188 133.304 297.574 130.921 299.219 130.009L299.218 130.148C296.492 128.548 298.367 124.648 301.317 125.767L301.226 125.873C299.995 123.947 299.79 121.411 300.71 119.339Z" fill="white"/>
<path d="M329.623 164.032C333.611 166.263 336.64 173.715 336.346 179.934C336.161 183.87 334.777 194.034 333.598 203.019C333.227 205.851 334.354 210.627 334.876 216.371C335.264 220.631 335.316 225.161 335.316 225.161C335.316 225.161 329.971 231.776 315.3 232.64C296.573 233.742 288.278 229.213 288.278 229.213C288.278 229.213 288.164 213.954 288.614 201.87C289.283 183.951 289.321 178.708 292.123 172.608C293.049 170.805 294.019 166.79 297.07 165.996C299.487 165.369 305.064 164.032 307.272 163.696C310.893 164.628 320.28 164.707 322.606 162.726L322.567 162.205C326.596 162.157 327.163 162.655 329.623 164.032Z" fill="#FFC107"/>
<path d="M229.277 209.879C229.889 210.02 230.71 209.698 231.603 208.914C233.277 207.443 234.767 204.677 235.075 202.47C235.239 201.294 235.057 200.43 234.602 199.996C234.312 199.72 231.353 196.893 230.926 196.485C230.178 195.772 228.662 195.453 227.267 196.176C224.189 197.773 221.693 202.406 222.052 205.855C222.215 207.418 228.887 209.789 229.277 209.879Z" fill="#273B44"/>
<path d="M234.881 202.112C234.845 200.875 234.386 200.018 233.671 199.633C232.956 199.248 231.989 199.335 230.935 199.985C228.828 201.286 227.179 204.346 227.251 206.821C227.288 208.059 227.747 208.915 228.462 209.3C229.176 209.685 230.145 209.598 231.198 208.948C233.305 207.648 234.954 204.588 234.881 202.112Z" fill="#263238"/>
<path d="M254.124 220.546C254.553 220.763 255.126 220.705 255.743 220.323C256.967 219.563 257.918 217.798 257.879 216.357C257.86 215.631 257.594 215.12 257.176 214.882C256.922 214.737 234.17 201.76 233.803 201.551C233.196 201.204 232.403 201.19 231.568 201.595C229.883 202.413 228.7 204.609 228.943 206.466C229.063 207.386 229.512 208.041 230.136 208.358C230.512 208.549 253.863 220.414 254.124 220.546Z" fill="#273B44"/>
<path d="M257.879 216.357C257.86 215.632 257.594 215.12 257.176 214.883C256.756 214.643 256.182 214.68 255.556 215.054C254.293 215.808 253.311 217.629 253.376 219.099C253.409 219.828 253.693 220.327 254.124 220.546C254.553 220.763 255.126 220.705 255.743 220.323C256.967 219.563 257.918 217.798 257.879 216.357Z" fill="#263238"/>
<path d="M283.435 212.898C285.548 212.193 287.102 209.742 290.135 203.448C293.916 195.603 295.961 193.84 298.738 185.817C301.07 179.939 297.986 169.108 296.552 166.846C291.82 168.535 288.529 170.09 285.339 176.719C282.471 182.68 276.736 194.702 274.126 199.991C274.126 199.991 258.902 203.273 254.812 203.547C253.228 203.653 251.648 203.421 250.207 202.687C249.325 202.237 248.454 202.029 247.439 202.032C247.064 202.034 246.683 202.065 246.33 202.193C245.634 202.445 245.127 203.033 244.595 203.548C243.628 204.484 242.447 205.083 241.39 205.877C240.158 206.804 238.703 207.442 237.457 208.368C236.389 209.161 235.203 209.819 234.528 211.016C234.416 211.214 234.316 211.424 234.284 211.649C234.227 212.042 234.387 212.446 234.653 212.741C234.919 213.035 235.283 213.228 235.66 213.35C236.169 213.513 236.759 213.565 237.199 213.89C237.703 214.263 237.745 214.997 238.203 215.436C238.914 216.118 240.091 216.015 240.902 216.574C241.534 217.008 241.876 217.799 242.555 218.156C242.911 218.343 243.322 218.389 243.722 218.432C244.43 218.508 245.138 218.722 245.854 218.722C246.708 218.721 247.078 218.317 247.786 217.924C250.224 216.568 251.541 214.933 255.851 214.645C258.741 214.454 281.322 213.603 283.435 212.898Z" fill="#E6A364"/>
<path d="M297.007 165.997C291.86 167.218 288.82 169.069 285.433 175.276C282.298 181.023 273.827 199.404 273.827 199.404L265.323 201.8C265.323 201.8 263.16 204.524 264.006 208.685C264.816 212.669 266.584 214.461 266.584 214.461C266.584 214.461 270.938 214.341 278.361 214.083C285.671 213.828 286.316 212.109 287.944 208.886C289.572 205.664 299.562 186.18 299.562 186.18C299.562 186.18 303.571 171.804 297.007 165.997Z" fill="#273B44"/>
<path d="M307.272 163.697C303.814 164.335 300.398 165.215 297 166.106C294.848 166.547 291.869 167.66 289.984 169.385C286.694 172.343 284.952 176.529 282.989 180.403C279.902 186.719 276.976 193.115 273.992 199.48L273.956 199.556L273.876 199.579L265.367 201.951C261.225 202.585 256.814 203.972 252.624 203.583C251.178 203.451 249.961 202.512 248.574 202.24C247.891 202.127 247.16 202.079 246.5 202.248C245.836 202.435 245.33 202.961 244.827 203.459C242.68 205.382 240.111 206.692 237.716 208.223C236.586 209.069 235.256 209.754 234.528 211.016C235.237 209.741 236.563 209.03 237.677 208.167C240.041 206.608 242.6 205.231 244.689 203.318C245.185 202.824 245.707 202.26 246.441 202.046C247.167 201.859 247.897 201.91 248.614 202.022C250.038 202.286 251.205 203.211 252.662 203.34C256.862 203.691 261.153 202.298 265.295 201.644C265.235 201.66 273.791 199.225 273.779 199.228L273.664 199.326C276.592 192.931 279.619 186.582 282.722 180.269C284.718 176.379 286.499 172.174 289.835 169.211C291.855 167.486 294.522 166.343 297.08 165.95C300.051 165.116 303.95 164.281 307.272 163.697Z" fill="white"/>
<path opacity="0.3" d="M293.722 277.02C290.184 290.243 287.576 303.722 285.947 317.317C285.419 321.717 284.752 326.59 281.345 329.415C278.73 331.58 275.122 331.984 271.738 332.232C265.391 332.682 258.507 332.721 253.184 329.4C253.867 331.285 255.722 333.528 258.709 335.282C262.17 337.307 269.775 338.681 272.018 339.309C274.253 339.938 277.698 342.289 279.785 343.36C283.588 345.3 286.692 345.075 288.422 344.213C289.097 343.872 289.385 343.143 289.579 342.491C290.036 340.954 289.998 340.605 289.827 340.566L289.819 340.558C290.316 339.115 290.696 337.245 290.828 335.98C291.286 331.324 292.388 329.966 291.557 329.469C292 328.352 292.667 326.474 293.334 324.542C293.404 324.519 293.49 324.511 293.552 324.48C293.552 324.48 296.989 315.649 301.25 304.094C301.537 303.31 301.808 302.55 302.072 301.813C299.185 296.87 297.711 293.952 296.764 290.212C295.833 286.541 294.809 282.925 293.722 277.02ZM349.09 204.875C348.71 200.071 347.755 196.665 346.801 193.662C345.839 190.659 341.47 176.046 338.195 170.04C334.92 164.034 331.49 162.769 325.352 162.311V162.313C324.63 162.224 323.75 162.189 322.566 162.203C322.566 162.203 322.59 162.497 322.597 162.645L321.829 157.003C325.166 153.411 327.424 151.106 329.682 147.994C335.099 140.521 335.106 133.141 331.63 131.031C331.832 128.377 330.396 124.396 324.956 122.099C322.915 121.238 321.146 120.749 319.524 120.485C317.693 120.702 315.885 121.09 314.139 121.657C311.726 122.433 309.328 123.62 307.791 125.638C306.457 127.407 305.906 129.626 305.386 131.776C303.717 138.674 302.049 145.705 302.6 152.774C302.693 153.977 302.864 155.203 303.469 156.243C304.004 157.143 305.269 158.136 306.519 158.323C306.519 158.323 309.863 158.54 311.539 158.571C311.772 159.999 312.106 162.141 312.339 163.568C312.416 164.049 312.494 164.569 312.277 165.004C311.989 165.578 311.314 165.819 310.701 165.99C304.633 167.658 297.556 167.805 293.288 172.43C291.689 174.161 290.696 176.341 289.718 178.483C287.499 183.372 285.279 188.261 283.06 193.142C281.617 196.331 280.073 199.645 277.318 201.802C272.344 205.697 265.243 204.642 259.113 206.155C254.666 207.257 250.709 209.733 246.309 210.959C245.3 211.246 244.291 211.517 243.267 211.719C242.196 211.929 241.11 211.836 240.039 211.999C239.263 212.115 238.425 212.681 238.324 213.512C238.285 213.861 238.378 214.443 238.533 214.761C238.681 215.056 238.89 215.599 239.55 216.065C240.023 216.189 240.504 216.305 240.9 216.577C241.536 217.011 241.878 217.803 242.553 218.16C242.91 218.346 243.321 218.393 243.717 218.432C244.431 218.509 245.137 218.726 245.851 218.719C246.705 218.719 247.077 218.315 247.783 217.927C247.977 217.819 248.156 217.71 248.334 217.601C250.445 216.321 251.88 214.909 255.854 214.645C256.048 214.629 256.319 214.614 256.676 214.598C258.476 214.505 262.193 214.342 266.314 214.148C266.485 214.358 266.586 214.458 266.586 214.458C266.586 214.458 270.939 214.342 278.358 214.086C285.667 213.83 286.312 212.107 287.941 208.887C288.065 208.646 288.236 208.313 288.438 207.909V207.948C290.82 203.315 295.057 194.965 296.454 192.242C296.454 192.242 295.942 214.722 295.996 224.515C296.097 242.728 298.953 260.793 301.793 278.781C302.499 283.204 304.377 287.41 305.952 291.624C307.69 296.288 309.483 300.928 311.407 305.514C315.187 314.539 319.486 323.386 324.77 331.642C325.919 333.443 327.129 335.235 327.835 337.253C328.813 340.054 328.759 343.096 328.666 346.053C328.596 348.489 328.495 350.965 327.618 353.238C326.035 357.382 320.673 357.778 317.321 355.333C317.018 356.327 317.235 357.103 317.235 357.103C317.235 357.103 316.832 358.259 317.646 359.415C319.067 361.153 324.685 363.055 328.798 361.898C328.867 361.883 328.937 361.852 328.999 361.836C332.344 361.068 338.024 358.593 339.087 356.66C339.77 355.427 339.716 354.177 339.398 351.547C339.087 348.908 340.15 346.433 340.725 344.989C342.021 341.746 342.603 339.045 341.64 338.106C341.283 337.579 340.81 337.214 340.43 337.152C340.119 335.988 339.398 335.662 338.474 335.01C337.318 334.195 336.201 333.225 335.906 332.814C335.665 332.48 335.572 332.271 335.316 332.1C334.819 330.905 334.338 329.322 333.71 327.25C333.779 327.235 333.842 327.219 333.911 327.211C333.911 327.211 328.875 308.828 327.424 304.195C325.034 296.567 324.111 293.277 320.479 288.147C320.479 288.147 321.138 269.019 321.953 253.398L329.372 241.937C329.372 241.937 331.114 240.123 332.879 236.335C332.859 236.38 332.838 236.43 332.817 236.474C332.949 236.512 333.097 236.536 333.267 236.528C334.912 236.512 336.084 234.984 337.303 234.13C337.628 233.905 337.877 233.874 338.063 233.944C338.094 233.928 338.117 233.905 338.148 233.889C339.46 233.261 339.537 236.194 339.514 236.846C339.46 238.336 338.994 239.795 338.443 241.176C337.528 243.458 336.371 245.755 336.48 248.207C336.48 248.377 336.503 248.548 336.55 248.711C337.093 248.439 337.295 247.555 337.582 247.089C337.985 246.437 338.467 246.228 339.08 245.809C339.762 245.351 340.22 244.676 340.818 244.156C341.392 243.659 342.277 243.737 342.944 243.233C343.542 242.782 343.511 242.084 343.93 241.572C344.325 241.075 344.993 240.912 345.419 240.385C346.056 239.593 346.56 238.577 346.7 237.56C346.995 235.364 347.561 233.238 347.553 231.026C347.546 228.9 347.53 226.89 347.67 224.787C347.879 221.505 348.547 216.204 348.811 211.797C349.051 211.595 349.129 211.44 349.129 211.44C349.129 211.44 349.369 208.561 349.09 204.875ZM340.849 222.001C340.399 223.67 339.111 224.942 338.125 226.355C336.154 229.179 335.339 232.694 333.283 235.465C333.283 235.473 333.275 235.473 333.267 235.48C333.267 235.48 333.267 235.481 333.26 235.488C333.387 235.193 333.514 234.888 333.64 234.572C334.726 231.856 334.912 228.706 334.718 225.78C335.13 225.4 335.316 225.159 335.316 225.159C335.316 225.159 335.262 220.628 334.874 216.375C334.354 210.625 333.229 205.853 333.601 203.02C334.043 199.647 334.515 196.108 334.94 192.795C334.941 192.796 334.943 192.799 334.943 192.8V192.808C336.131 195.183 337.202 197.604 338.055 200.079C340.15 206.171 340.67 212.658 341.004 219.045C341.058 220.038 341.105 221.047 340.849 222.001Z" fill="#1A1A2E"/>
<path d="M82.3622 149.563L74.2127 154.268V173.871L62.9638 180.366L76.1682 130.724L67.4071 135.782L53.249 188.719V196.295L74.2127 184.192V195.536L82.3622 190.831V179.487L87.8749 176.304V165.983L82.3622 169.166V149.563ZM112.013 110.03C100.322 116.779 90.8447 134.889 90.8447 150.476C90.8447 166.064 100.323 173.23 112.013 166.479C123.704 159.73 133.182 141.62 133.182 126.032C133.182 110.445 123.704 103.28 112.013 110.03ZM112.013 155.612C104.821 159.764 98.9911 155.357 98.9911 145.772C98.9911 136.183 104.821 125.045 112.013 120.892C119.205 116.74 125.031 121.149 125.031 130.738C125.031 140.323 119.205 151.46 112.013 155.612ZM165.059 121.421V101.818L156.909 106.523V126.126L145.66 132.621L158.864 82.9792L150.104 88.0372L135.946 140.974V148.55L156.909 136.447V147.791L165.059 143.086V131.742L170.572 128.559V118.238L165.059 121.421Z" fill="#FFC107"/>
<path d="M81.2377 117.803C81.2936 117.77 81.3417 117.77 81.3828 117.801C81.4232 117.831 81.4434 117.884 81.4434 117.958V118.679C81.4434 118.754 81.4232 118.83 81.3828 118.907C81.3417 118.985 81.2944 119.039 81.2377 119.072L77.8971 121C77.8412 121.033 77.7931 121.033 77.7519 121.003C77.7116 120.972 77.6914 120.919 77.6914 120.845V114.292C77.6914 114.217 77.7116 114.141 77.7519 114.064C77.7931 113.986 77.8404 113.932 77.8971 113.899L81.1764 112.006C81.2323 111.973 81.2804 111.973 81.3215 112.003C81.3627 112.034 81.3828 112.087 81.3828 112.162V112.882C81.3828 112.957 81.3627 113.032 81.3215 113.11C81.2804 113.187 81.2331 113.242 81.1764 113.274L78.7188 114.694V116.306L81.0096 114.984C81.0647 114.951 81.1128 114.951 81.1539 114.982C81.1951 115.013 81.2152 115.065 81.2152 115.14V115.86C81.2152 115.934 81.1951 116.011 81.1539 116.087C81.1128 116.166 81.0655 116.219 81.0096 116.252L78.7188 117.574V119.259L81.2377 117.803Z" fill="#37474F"/>
<path d="M84.5551 110.055C85.1891 109.688 85.671 109.606 86.0008 109.809C86.3306 110.011 86.4958 110.46 86.4958 111.156C86.4958 111.65 86.4105 112.12 86.2405 112.567C86.0706 113.013 85.8207 113.416 85.4909 113.776L86.5416 115.675C86.5564 115.707 86.5641 115.739 86.5641 115.772C86.5641 115.834 86.5478 115.896 86.5152 115.959C86.4819 116.021 86.4423 116.066 86.3973 116.093L85.7501 116.467C85.6492 116.525 85.574 116.537 85.5258 116.5C85.4777 116.464 85.4444 116.424 85.4234 116.382L84.4262 114.594L83.4143 115.178V117.542C83.4143 117.617 83.3942 117.693 83.3538 117.77C83.3135 117.847 83.2646 117.902 83.2087 117.934L82.5926 118.29C82.5367 118.322 82.4886 118.322 82.4482 118.292C82.4071 118.262 82.3877 118.209 82.3877 118.134V111.581C82.3877 111.507 82.4071 111.431 82.4482 111.352C82.4894 111.275 82.5367 111.22 82.5926 111.188L84.5551 110.055ZM83.4136 113.909L84.517 113.272C84.8065 113.105 85.037 112.904 85.2092 112.669C85.3823 112.435 85.4684 112.128 85.4684 111.749C85.4684 111.37 85.3823 111.166 85.2092 111.137C85.037 111.109 84.8065 111.178 84.517 111.344L83.4136 111.982V113.909Z" fill="#37474F"/>
<path d="M89.6518 107.111C90.2858 106.745 90.7677 106.663 91.0975 106.865C91.4273 107.067 91.5926 107.516 91.5926 108.212C91.5926 108.707 91.508 109.176 91.3373 109.623C91.1673 110.069 90.9182 110.472 90.5876 110.832L91.6383 112.731C91.6539 112.764 91.6609 112.795 91.6609 112.829C91.6609 112.89 91.6446 112.952 91.612 113.015C91.5786 113.079 91.539 113.123 91.494 113.149L90.8476 113.523C90.7459 113.582 90.6707 113.593 90.6226 113.557C90.5744 113.52 90.5411 113.481 90.5201 113.439L89.5237 111.65L88.5111 112.234V114.599C88.5111 114.673 88.4909 114.749 88.4513 114.826C88.4102 114.904 88.3621 114.959 88.3054 114.991L87.6893 115.346C87.6334 115.379 87.5853 115.379 87.5449 115.349C87.5038 115.318 87.4836 115.265 87.4836 115.191V108.638C87.4836 108.563 87.5038 108.487 87.5449 108.41C87.5853 108.332 87.6326 108.278 87.6893 108.245L89.6518 107.111ZM88.5103 110.966L89.6138 110.329C89.9032 110.162 90.1337 109.962 90.3067 109.726C90.4798 109.492 90.5651 109.186 90.5651 108.806C90.5651 108.427 90.4798 108.224 90.3067 108.195C90.1337 108.166 89.9032 108.235 89.6138 108.402L88.5103 109.039V110.966Z" fill="#37474F"/>
<path d="M92.3998 108.173C92.4145 107.786 92.4689 107.398 92.5628 107.009C92.6567 106.62 92.7956 106.249 92.9771 105.897C93.1595 105.545 93.3884 105.216 93.6623 104.913C93.937 104.609 94.2606 104.349 94.6362 104.132C95.0072 103.918 95.3292 103.804 95.6031 103.788C95.877 103.771 96.1044 103.836 96.2876 103.981C96.4699 104.125 96.6096 104.336 96.7058 104.612C96.802 104.888 96.8579 105.214 96.8734 105.59C96.8781 105.717 96.882 105.856 96.8851 106.011C96.8874 106.165 96.889 106.324 96.889 106.49C96.889 106.656 96.8874 106.817 96.8851 106.974C96.882 107.132 96.8781 107.276 96.8734 107.406C96.8579 107.793 96.8036 108.182 96.7105 108.571C96.6158 108.961 96.4777 109.331 96.2953 109.683C96.113 110.035 95.8833 110.362 95.607 110.664C95.33 110.966 95.0072 111.223 94.6362 111.438C94.2614 111.654 93.937 111.77 93.6623 111.787C93.3884 111.802 93.1603 111.74 92.9771 111.598C92.7956 111.456 92.6567 111.246 92.5628 110.966C92.4689 110.685 92.4145 110.36 92.3998 109.99C92.3944 109.865 92.3897 109.725 92.3882 109.571C92.3851 109.417 92.3843 109.257 92.3843 109.091C92.3843 108.926 92.3851 108.764 92.3882 108.607C92.3897 108.449 92.3944 108.305 92.3998 108.173ZM95.846 106.234C95.8258 105.76 95.7071 105.451 95.4922 105.308C95.2764 105.165 94.9909 105.196 94.6355 105.402C94.28 105.607 93.996 105.905 93.7803 106.297C93.5653 106.688 93.4466 107.133 93.4264 107.631C93.4164 107.894 93.4109 108.182 93.4109 108.497C93.4109 108.812 93.4164 109.095 93.4264 109.346C93.4466 109.821 93.5653 110.128 93.7803 110.267C93.996 110.407 94.28 110.374 94.6355 110.17C94.9901 109.965 95.2757 109.668 95.4922 109.279C95.7071 108.891 95.8258 108.448 95.846 107.949C95.8561 107.686 95.8615 107.398 95.8615 107.083C95.8615 106.768 95.8561 106.485 95.846 106.234Z" fill="#37474F"/>
<path d="M100.045 101.111C100.678 100.745 101.162 100.663 101.491 100.865C101.82 101.067 101.986 101.516 101.986 102.213C101.986 102.707 101.9 103.176 101.73 103.623C101.56 104.069 101.311 104.472 100.981 104.832L102.03 106.731C102.045 106.764 102.053 106.796 102.053 106.829C102.053 106.89 102.037 106.952 102.004 107.015C101.971 107.078 101.931 107.123 101.886 107.149L101.239 107.523C101.138 107.581 101.063 107.593 101.015 107.556C100.966 107.52 100.933 107.48 100.913 107.438L99.9154 105.649L98.9034 106.234V108.598C98.9034 108.673 98.8833 108.749 98.8429 108.826C98.8018 108.903 98.7537 108.958 98.6978 108.99L98.0809 109.346C98.0258 109.378 97.9777 109.379 97.9365 109.349C97.8954 109.318 97.8752 109.266 97.8752 109.191V102.638C97.8752 102.563 97.8954 102.487 97.9365 102.41C97.9777 102.332 98.025 102.278 98.0809 102.245L100.045 101.111ZM98.9042 104.966L100.007 104.329C100.296 104.162 100.527 103.961 100.7 103.726C100.873 103.491 100.958 103.185 100.958 102.805C100.958 102.427 100.873 102.223 100.7 102.194C100.527 102.165 100.296 102.234 100.007 102.401L98.9042 103.038V104.966Z" fill="#37474F"/>
<path d="M109.265 102.891C109.179 102.94 109.113 102.948 109.067 102.914C109.021 102.879 108.988 102.851 108.968 102.829L106.837 99.8379V104.018C106.837 104.093 106.817 104.169 106.777 104.246C106.737 104.323 106.688 104.378 106.633 104.41L106.016 104.765C105.961 104.798 105.912 104.798 105.872 104.768C105.831 104.738 105.812 104.685 105.812 104.61V98.057C105.812 97.9825 105.831 97.9064 105.872 97.828C105.913 97.7504 105.961 97.6961 106.016 97.6635L106.55 97.3562C106.635 97.3066 106.702 97.2996 106.747 97.3337C106.793 97.3679 106.826 97.3966 106.846 97.4183L108.976 100.409V96.2295C108.976 96.155 108.996 96.0789 109.037 96.0013C109.078 95.9237 109.126 95.8686 109.182 95.8368L109.799 95.4806C109.854 95.4488 109.903 95.448 109.943 95.4783C109.984 95.5093 110.004 95.5621 110.004 95.6366V102.19C110.004 102.264 109.984 102.34 109.943 102.418C109.903 102.496 109.854 102.55 109.799 102.583L109.265 102.891Z" fill="#37474F"/>
<path d="M103.067 105.853C103.076 105.762 103.105 105.666 103.152 105.562C103.2 105.458 103.269 105.379 103.361 105.327L103.955 104.984C103.996 104.96 104.031 104.96 104.061 104.983C104.091 105.005 104.105 105.044 104.105 105.098C104.105 105.123 104.103 105.145 104.098 105.166L103.647 106.94C103.629 107.011 103.598 107.093 103.555 107.184C103.511 107.276 103.444 107.348 103.354 107.401L103.047 107.578C103.005 107.603 102.97 107.603 102.94 107.581C102.911 107.558 102.896 107.52 102.896 107.466V107.447L103.067 105.853Z" fill="#37474F"/>
<path d="M111.007 97.4315C111.022 97.0442 111.077 96.6562 111.17 96.2675C111.264 95.8779 111.402 95.5078 111.585 95.1555C111.766 94.8032 111.995 94.4749 112.269 94.1715C112.544 93.8673 112.868 93.6073 113.243 93.3908C113.614 93.1767 113.936 93.0626 114.21 93.0463C114.484 93.03 114.711 93.0944 114.894 93.2387C115.077 93.3839 115.217 93.5934 115.314 93.8696C115.409 94.1459 115.466 94.4718 115.48 94.8482C115.486 94.9747 115.49 95.1136 115.492 95.268C115.495 95.4216 115.496 95.5815 115.496 95.7468C115.496 95.9128 115.495 96.0742 115.492 96.231C115.49 96.3885 115.486 96.5329 115.48 96.6632C115.466 97.0512 115.411 97.44 115.317 97.828C115.223 98.2176 115.085 98.5877 114.902 98.94C114.72 99.2931 114.491 99.619 114.214 99.9209C113.938 100.223 113.614 100.48 113.243 100.695C112.868 100.911 112.544 101.027 112.269 101.044C111.995 101.059 111.767 100.997 111.585 100.855C111.402 100.713 111.264 100.503 111.17 100.223C111.077 99.9418 111.022 99.6167 111.007 99.2465C111.001 99.1216 110.997 98.9819 110.995 98.8267C110.993 98.6731 110.991 98.5132 110.991 98.3471C110.991 98.1819 110.993 98.0205 110.995 97.8637C110.998 97.7077 111.002 97.5634 111.007 97.4315ZM114.454 95.4922C114.434 95.0173 114.315 94.7085 114.1 94.5657C113.884 94.4229 113.599 94.454 113.243 94.6596C112.889 94.8645 112.604 95.1624 112.387 95.5543C112.172 95.9454 112.054 96.3909 112.033 96.889C112.023 97.1513 112.018 97.4408 112.018 97.7551C112.018 98.0693 112.023 98.3526 112.033 98.604C112.054 99.0789 112.172 99.3854 112.387 99.5251C112.603 99.6648 112.889 99.6322 113.243 99.4273C113.599 99.2225 113.883 98.926 114.1 98.5365C114.315 98.1485 114.434 97.7054 114.454 97.2072C114.464 96.9441 114.469 96.6555 114.469 96.3404C114.468 96.0261 114.464 95.7437 114.454 95.4922Z" fill="#37474F"/>
<path d="M119.924 89.6351C119.98 89.6032 120.028 89.6025 120.069 89.6327C120.111 89.6638 120.13 89.7165 120.13 89.791V90.5112C120.13 90.5864 120.111 90.6617 120.069 90.7393C120.028 90.8169 119.981 90.8712 119.924 90.9038L118.555 91.6946V97.2538C118.555 97.3283 118.534 97.4044 118.493 97.4812C118.453 97.5588 118.405 97.6131 118.349 97.6457L117.733 98.0011C117.677 98.0337 117.628 98.0345 117.588 98.0034C117.547 97.9732 117.527 97.9204 117.527 97.8459V92.2866L116.157 93.0774C116.102 93.1092 116.053 93.11 116.012 93.0797C115.971 93.0487 115.951 92.9967 115.951 92.9214V92.2013C115.951 92.1268 115.971 92.0507 116.012 91.9724C116.053 91.8948 116.101 91.8404 116.157 91.8079L119.924 89.6351Z" fill="#37474F"/>
<path d="M125.89 86.1911C125.945 86.1585 125.993 86.1585 126.034 86.1888C126.075 86.2198 126.095 86.2726 126.095 86.3471V87.0672C126.095 87.1425 126.075 87.2178 126.034 87.2954C125.993 87.373 125.945 87.4281 125.89 87.4599L123.461 88.8613V90.8293L125.737 89.5155C125.793 89.4837 125.841 89.4821 125.882 89.5132C125.923 89.5434 125.943 89.5962 125.943 89.6707V90.3916C125.943 90.4661 125.923 90.5422 125.882 90.619C125.841 90.6966 125.793 90.7517 125.737 90.7835L123.461 92.0973V94.4206C123.461 94.4951 123.441 94.5712 123.402 94.648C123.361 94.7256 123.312 94.7807 123.256 94.8125L122.64 95.1679C122.584 95.2005 122.536 95.2005 122.495 95.1702C122.455 95.14 122.435 95.0872 122.435 95.0127V88.4594C122.435 88.3849 122.455 88.3088 122.495 88.2312C122.536 88.1536 122.584 88.0993 122.64 88.0667L125.89 86.1911Z" fill="#37474F"/>
<path d="M126.733 88.3522C126.749 87.965 126.803 87.577 126.897 87.1882C126.991 86.7987 127.13 86.4285 127.311 86.0762C127.494 85.7239 127.722 85.3957 127.997 85.0923C128.271 84.7881 128.595 84.5281 128.971 84.3116C129.341 84.0974 129.663 83.9834 129.937 83.9671C130.211 83.9508 130.439 84.0152 130.622 84.1603C130.803 84.3054 130.944 84.5149 131.04 84.7912C131.136 85.0674 131.192 85.3934 131.208 85.7697C131.212 85.8962 131.216 86.0351 131.219 86.1895C131.222 86.3432 131.223 86.503 131.223 86.6683C131.223 86.8344 131.222 86.9958 131.219 87.1525C131.216 87.3101 131.212 87.4544 131.208 87.5848C131.192 87.9728 131.137 88.3616 131.044 88.7503C130.95 89.1399 130.812 89.51 130.63 89.8623C130.446 90.2154 130.218 90.5413 129.941 90.8432C129.664 91.1451 129.341 91.4027 128.971 91.6169C128.595 91.8334 128.271 91.9498 127.997 91.9661C127.722 91.9816 127.495 91.9195 127.311 91.7775C127.13 91.6355 126.991 91.4252 126.897 91.1451C126.803 90.8642 126.749 90.539 126.733 90.1689C126.728 90.0439 126.724 89.9042 126.722 89.7498C126.719 89.5962 126.718 89.4363 126.718 89.2703C126.718 89.105 126.719 88.9436 126.722 88.7868C126.724 88.6277 126.728 88.4834 126.733 88.3522ZM130.18 86.4122C130.16 85.9373 130.041 85.6285 129.826 85.4857C129.611 85.3429 129.325 85.374 128.97 85.5796C128.614 85.7845 128.33 86.0824 128.113 86.4743C127.898 86.8654 127.78 87.3108 127.76 87.809C127.75 88.0713 127.744 88.3608 127.744 88.6751C127.744 88.9893 127.75 89.2726 127.76 89.524C127.78 89.9989 127.898 90.3054 128.113 90.4451C128.329 90.5848 128.614 90.5522 128.97 90.3473C129.324 90.1425 129.61 89.846 129.826 89.4565C130.041 89.0685 130.16 88.6254 130.18 88.1272C130.19 87.8641 130.195 87.5755 130.195 87.2604C130.196 86.9469 130.19 86.6637 130.18 86.4122Z" fill="#37474F"/>
<path d="M136.328 80.1647C136.383 80.1329 136.432 80.1321 136.472 80.1624C136.513 80.1934 136.533 80.2462 136.533 80.3207V84.4793C136.533 84.8991 136.488 85.3034 136.397 85.6945C136.304 86.0856 136.168 86.455 135.986 86.8042C135.803 87.1526 135.575 87.4723 135.3 87.7625C135.026 88.052 134.71 88.3011 134.35 88.509C133.983 88.7201 133.665 88.8381 133.394 88.8629C133.123 88.8877 132.896 88.8303 132.714 88.693C132.532 88.5548 132.396 88.3422 132.307 88.0559C132.219 87.768 132.174 87.4157 132.174 86.9958V82.8373C132.174 82.7628 132.194 82.6867 132.234 82.6091C132.275 82.5315 132.323 82.4772 132.379 82.4446L132.995 82.0884C133.051 82.0566 133.1 82.0558 133.14 82.0861C133.18 82.1179 133.2 82.1699 133.2 82.2444V86.3525C133.2 86.6296 133.228 86.8507 133.284 87.0137C133.34 87.1782 133.419 87.2931 133.52 87.3598C133.622 87.4273 133.743 87.4475 133.886 87.4234C134.028 87.3994 134.183 87.3388 134.351 87.2418C134.517 87.1456 134.673 87.0261 134.818 86.8849C134.964 86.7436 135.085 86.5822 135.188 86.3975C135.289 86.2136 135.369 86.0072 135.428 85.7775C135.486 85.5486 135.515 85.2941 135.515 85.017V80.9089C135.515 80.8344 135.535 80.7591 135.576 80.6808C135.616 80.6032 135.664 80.5481 135.721 80.5162L136.328 80.1647Z" fill="#37474F"/>
<path d="M141.136 84.4902C141.05 84.5399 140.984 84.5476 140.938 84.5135C140.892 84.4786 140.859 84.4507 140.838 84.4281L138.708 81.4374V85.6178C138.708 85.6922 138.688 85.7683 138.648 85.8451C138.607 85.9227 138.559 85.9778 138.503 86.0096L137.886 86.3658C137.831 86.3976 137.783 86.3984 137.741 86.3681C137.7 86.3379 137.68 86.2851 137.68 86.2106V79.6573C137.68 79.5828 137.7 79.5068 137.741 79.4292C137.783 79.3516 137.83 79.2972 137.886 79.2646L138.42 78.9566C138.505 78.9069 138.572 78.8999 138.617 78.9341C138.663 78.9682 138.696 78.9969 138.716 79.0186L140.846 82.0094V77.8298C140.846 77.7553 140.866 77.6793 140.908 77.6017C140.948 77.5241 140.996 77.469 141.052 77.4372L141.668 77.081C141.724 77.0492 141.772 77.0484 141.812 77.0786C141.854 77.1097 141.874 77.1625 141.874 77.2369V83.7903C141.874 83.8648 141.854 83.9408 141.812 84.0184C141.771 84.096 141.724 84.1503 141.668 84.1829L141.136 84.4902Z" fill="#37474F"/>
<path d="M145.146 75.0741C145.521 74.8576 145.847 74.7349 146.124 74.707C146.401 74.6791 146.631 74.7342 146.816 74.8707C147.002 75.0073 147.144 75.2199 147.243 75.5071C147.341 75.795 147.4 76.1465 147.421 76.5601C147.441 77.049 147.441 77.5495 147.421 78.0617C147.4 78.5001 147.341 78.9191 147.243 79.3211C147.144 79.7238 147.003 80.0987 146.82 80.4479C146.638 80.7963 146.411 81.1152 146.139 81.4039C145.868 81.6926 145.549 81.9424 145.185 82.1527L143.267 83.2601C143.212 83.2919 143.163 83.2927 143.122 83.2624C143.081 83.2321 143.061 83.1794 143.061 83.1049V76.5516C143.061 76.4771 143.081 76.401 143.122 76.3234C143.163 76.2458 143.211 76.1915 143.267 76.1589L145.146 75.0741ZM146.393 77.1537C146.382 76.9442 146.351 76.7603 146.298 76.6059C146.245 76.4499 146.166 76.3335 146.063 76.2543C145.958 76.176 145.827 76.1426 145.67 76.1566C145.513 76.1698 145.325 76.2388 145.107 76.3653L144.088 76.9543V81.5195L145.145 80.9088C145.353 80.7885 145.533 80.6457 145.685 80.4804C145.837 80.3144 145.963 80.1351 146.066 79.9411C146.167 79.7479 146.243 79.5399 146.297 79.3203C146.35 79.1007 146.382 78.8796 146.392 78.6568C146.413 78.1431 146.413 77.6426 146.393 77.1537Z" fill="#37474F"/>
</svg>
