<svg width="42" height="42" viewBox="0 0 42 42" fill="none" xmlns="http://www.w3.org/2000/svg">
<rect width="42" height="42" rx="10" fill="#FFC107"/>
<path d="M21.67 12.1584L30.17 16.9084C30.4195 17.033 30.6294 17.2247 30.776 17.4619C30.9226 17.6992 31.0002 17.9726 31 18.2514V19.6914C31 20.3814 30.44 20.9414 29.75 20.9414H29V28.9414H30C30.2652 28.9414 30.5196 29.0468 30.7071 29.2343C30.8946 29.4219 31 29.6762 31 29.9414C31 30.2067 30.8946 30.461 30.7071 30.6486C30.5196 30.8361 30.2652 30.9414 30 30.9414H12C11.7348 30.9414 11.4804 30.8361 11.2929 30.6486C11.1054 30.461 11 30.2067 11 29.9414C11 29.6762 11.1054 29.4219 11.2929 29.2343C11.4804 29.0468 11.7348 28.9414 12 28.9414H13V20.9414H12.25C11.56 20.9414 11 20.3814 11 19.6914V18.2514C11 17.7294 11.27 17.2494 11.706 16.9774L20.329 12.1584C20.5373 12.0542 20.7671 12 21 12C21.2329 12 21.4617 12.0542 21.67 12.1584ZM27 20.9414H15V28.9414H18V22.9414H20V28.9414H22V22.9414H24V28.9414H27V20.9414ZM21 14.0594L13 18.5594V18.9414H29V18.5594L21 14.0594ZM21 15.9414C21.2652 15.9414 21.5196 16.0468 21.7071 16.2343C21.8946 16.4219 22 16.6762 22 16.9414C22 17.2067 21.8946 17.461 21.7071 17.6486C21.5196 17.8361 21.2652 17.9414 21 17.9414C20.7348 17.9414 20.4804 17.8361 20.2929 17.6486C20.1054 17.461 20 17.2067 20 16.9414C20 16.6762 20.1054 16.4219 20.2929 16.2343C20.4804 16.0468 20.7348 15.9414 21 15.9414Z" fill="#1A1A2E"/>
</svg>
