<svg width="47" height="41" viewBox="0 0 47 41" fill="none" xmlns="http://www.w3.org/2000/svg">
<rect x="0.5" width="46" height="41" rx="10" fill="#FFC107"/>
<path d="M15.7388 11.8567C15.8648 11.7062 15.9269 11.5123 15.9116 11.3166C15.8963 11.1209 15.8049 10.939 15.657 10.8099C15.5091 10.6808 15.3164 10.6149 15.1205 10.6263C14.9245 10.6376 14.7408 10.7254 14.6088 10.8707L13.3168 12.3507C12.5841 13.1902 12.17 14.2606 12.1468 15.3747L12.0898 18.0937C12.0877 18.1922 12.1051 18.2901 12.1409 18.3819C12.1767 18.4736 12.2303 18.5575 12.2985 18.6285C12.3667 18.6996 12.4482 18.7566 12.5384 18.7962C12.6286 18.8357 12.7258 18.8571 12.8243 18.8592C12.9228 18.8612 13.0207 18.8438 13.1125 18.808C13.2042 18.7722 13.288 18.7187 13.3591 18.6505C13.4302 18.5823 13.4872 18.5007 13.5267 18.4105C13.5663 18.3203 13.5877 18.2232 13.5898 18.1247L13.6458 15.4067C13.6618 14.6444 13.9453 13.912 14.4468 13.3377L15.7388 11.8567Z" fill="#1E1E1E"/>
<path fill-rule="evenodd" clip-rule="evenodd" d="M17.7318 16.325C17.799 15.2551 18.2713 14.2511 19.0527 13.5172C19.8342 12.7834 20.8659 12.3749 21.9378 12.375H22.4948V11.625C22.4948 11.3598 22.6002 11.1054 22.7877 10.9179C22.9753 10.7304 23.2296 10.625 23.4948 10.625C23.76 10.625 24.0144 10.7304 24.2019 10.9179C24.3895 11.1054 24.4948 11.3598 24.4948 11.625V12.375H25.0518C26.1238 12.3749 27.1555 12.7834 27.9369 13.5172C28.7183 14.2511 29.1907 15.2551 29.2578 16.325L29.4788 19.859C29.5643 21.2062 30.0166 22.5044 30.7868 23.613C30.9462 23.8421 31.0436 24.1085 31.0695 24.3863C31.0954 24.6642 31.049 24.944 30.9347 25.1986C30.8205 25.4531 30.6423 25.6738 30.4175 25.8392C30.1927 26.0045 29.9289 26.1088 29.6518 26.142L26.2448 26.55V27.625C26.2448 28.3543 25.9551 29.0538 25.4394 29.5695C24.9236 30.0853 24.2242 30.375 23.4948 30.375C22.7655 30.375 22.066 30.0853 21.5503 29.5695C21.0346 29.0538 20.7448 28.3543 20.7448 27.625V26.55L17.3378 26.141C17.0609 26.1077 16.7973 26.0034 16.5727 25.8381C16.348 25.6728 16.1699 25.4523 16.0557 25.1979C15.9414 24.9434 15.895 24.6638 15.9207 24.3861C15.9465 24.1084 16.0437 23.8421 16.2028 23.613C16.9731 22.5044 17.4254 21.2062 17.5108 19.859L17.7318 16.325ZM21.9378 13.875C21.2474 13.8749 20.5829 14.138 20.0796 14.6106C19.5763 15.0832 19.2721 15.7299 19.2288 16.419L19.0088 19.953C18.906 21.5737 18.3617 23.1355 17.4348 24.469C17.4233 24.4856 17.4162 24.5048 17.4144 24.5249C17.4125 24.545 17.4158 24.5653 17.4241 24.5837C17.4323 24.6021 17.4452 24.6181 17.4615 24.63C17.4777 24.642 17.4968 24.6496 17.5168 24.652L21.2538 25.101C22.7428 25.279 24.2468 25.279 25.7358 25.101L29.4728 24.652C29.4929 24.6496 29.5119 24.642 29.5282 24.63C29.5444 24.6181 29.5573 24.6021 29.5656 24.5837C29.5738 24.5653 29.5772 24.545 29.5753 24.5249C29.5734 24.5048 29.5664 24.4856 29.5548 24.469C28.6283 23.1354 28.0843 21.5736 27.9818 19.953L27.7608 16.419C27.7176 15.7299 27.4133 15.0832 26.91 14.6106C26.4068 14.138 25.7422 13.8749 25.0518 13.875H21.9378ZM23.4948 28.875C22.8048 28.875 22.2448 28.315 22.2448 27.625V26.875H24.7448V27.625C24.7448 28.315 24.1848 28.875 23.4948 28.875Z" fill="#1E1E1E"/>
<path d="M31.3332 10.8098C31.1834 10.9406 31.0916 11.1255 31.0781 11.3239C31.0646 11.5223 31.1305 11.7179 31.2612 11.8678L32.5532 13.3478C33.0545 13.9226 33.3377 14.6553 33.3532 15.4178L33.4102 18.1348C33.4143 18.3337 33.4973 18.5228 33.6408 18.6606C33.7844 18.7983 33.9768 18.8734 34.1757 18.8693C34.3746 18.8652 34.5637 18.7822 34.7015 18.6387C34.8392 18.4951 34.9143 18.3027 34.9102 18.1038L34.8532 15.3858C34.83 14.2718 34.4158 13.2014 33.6832 12.3618L32.3912 10.8818C32.2604 10.732 32.0755 10.6402 31.8771 10.6267C31.6787 10.6132 31.4831 10.6791 31.3332 10.8098Z" fill="#1E1E1E"/>
</svg>
