<svg width="154" height="154" viewBox="0 0 154 154" fill="none" xmlns="http://www.w3.org/2000/svg">
<path d="M144.375 77C144.375 114.21 114.21 144.375 77 144.375C39.7898 144.375 9.625 114.21 9.625 77C9.625 39.7898 39.7898 9.625 77 9.625C114.21 9.625 144.375 39.7898 144.375 77Z" fill="url(#paint0_linear_73_122)"/>
<path d="M109.277 61.152C110.154 60.2444 110.639 59.0287 110.628 57.7669C110.617 56.5051 110.111 55.298 109.218 54.4058C108.326 53.5135 107.119 53.0074 105.857 52.9964C104.595 52.9854 103.38 53.4705 102.472 54.3471L69.7808 87.0385L53.9333 71.1909C53.0256 70.3143 51.81 69.8292 50.5481 69.8401C49.2863 69.8511 48.0793 70.3572 47.187 71.2495C46.2947 72.1418 45.7886 73.3488 45.7776 74.6106C45.7667 75.8725 46.2518 77.0881 47.1284 77.9958L66.3784 97.2458C67.2809 98.148 68.5047 98.6548 69.7808 98.6548C71.0569 98.6548 72.2808 98.148 73.1833 97.2458L109.277 61.152Z" fill="url(#paint1_linear_73_122)"/>
<defs>
<linearGradient id="paint0_linear_73_122" x1="14.4375" y1="34.8906" x2="107.429" y2="131.506" gradientUnits="userSpaceOnUse">
<stop stop-color="#52D17C"/>
<stop offset="1" stop-color="#22918B"/>
</linearGradient>
<linearGradient id="paint1_linear_73_122" x1="57.8988" y1="57.6004" x2="68.1542" y2="109.051" gradientUnits="userSpaceOnUse">
<stop stop-color="white"/>
<stop offset="1" stop-color="#E3FFD9"/>
</linearGradient>
</defs>
</svg>
