<svg width="60" height="60" viewBox="0 0 60 60" fill="none" xmlns="http://www.w3.org/2000/svg">
<circle cx="30" cy="30" r="30" fill="#1A1A2E"/>
<path d="M30 41.25C29.6458 41.25 29.3492 41.13 29.11 40.89C28.8708 40.65 28.7508 40.3533 28.75 40V31.25H20C19.6458 31.25 19.3492 31.13 19.11 30.89C18.8708 30.65 18.7508 30.3533 18.75 30C18.7492 29.6467 18.8692 29.35 19.11 29.11C19.3508 28.87 19.6475 28.75 20 28.75H28.75V20C28.75 19.6458 28.87 19.3492 29.11 19.11C29.35 18.8708 29.6467 18.7508 30 18.75C30.3533 18.7492 30.6504 18.8692 30.8913 19.11C31.1321 19.3508 31.2517 19.6475 31.25 20V28.75H40C40.3542 28.75 40.6513 28.87 40.8913 29.11C41.1313 29.35 41.2508 29.6467 41.25 30C41.2492 30.3533 41.1292 30.6504 40.89 30.8913C40.6508 31.1321 40.3542 31.2517 40 31.25H31.25V40C31.25 40.3542 31.13 40.6513 30.89 40.8913C30.65 41.1313 30.3533 41.2508 30 41.25Z" fill="#FFC107"/>
</svg>
