<svg width="47" height="41" viewBox="0 0 47 41" fill="none" xmlns="http://www.w3.org/2000/svg">
<rect x="0.5" width="46" height="41" rx="10" fill="#FFC107"/>
<path fill-rule="evenodd" clip-rule="evenodd" d="M23.4999 10.0833C17.747 10.0833 13.0833 14.7469 13.0833 20.4999C13.0833 26.2528 17.747 30.9166 23.4999 30.9166C29.2529 30.9166 33.9166 26.2529 33.9166 20.4999C33.9166 14.7469 29.2529 10.0833 23.4999 10.0833ZM23.4999 28.8333C18.9049 28.8333 15.1666 25.0949 15.1666 20.4999C15.1666 15.9049 18.9049 12.1666 23.4999 12.1666C28.095 12.1666 31.8333 15.9049 31.8333 20.4999C31.8333 25.0949 28.095 28.8333 23.4999 28.8333ZM24.8043 16.3333C24.8043 17.0885 24.2544 17.6354 23.5105 17.6354C22.7365 17.6354 22.2001 17.0885 22.2001 16.3188C22.2001 15.5791 22.751 15.0312 23.5105 15.0312C24.2544 15.0312 24.8043 15.5791 24.8043 16.3333ZM22.4605 19.4583H24.5438V25.7083H22.4605V19.4583Z" fill="#1E1E1E"/>
</svg>
