<svg width="25" height="31" viewBox="0 0 25 31" fill="none" xmlns="http://www.w3.org/2000/svg">
<path fill-rule="evenodd" clip-rule="evenodd" d="M7.75002 21.75L15.25 15.5L7.75002 9.25003C7.65153 9.16795 7.56694 9.06243 7.50107 8.93949C7.4352 8.81654 7.38935 8.67859 7.36614 8.5335C7.34292 8.38841 7.3428 8.23902 7.36577 8.09387C7.38874 7.94872 7.43436 7.81064 7.50002 7.68753C7.63263 7.43889 7.83882 7.26628 8.07324 7.20767C8.18932 7.17865 8.30883 7.1785 8.42495 7.20721C8.54107 7.23593 8.65153 7.29295 8.75002 7.37503L17.252 14.46C17.389 14.5742 17.5013 14.7288 17.5789 14.9103C17.6566 15.0917 17.6972 15.2943 17.6972 15.5C17.6972 15.7058 17.6566 15.9084 17.5789 16.0898C17.5013 16.2712 17.389 16.4259 17.252 16.54L8.75002 23.625C8.65153 23.7071 8.54107 23.7641 8.42495 23.7928C8.30883 23.8216 8.18932 23.8214 8.07324 23.7924C7.95717 23.7634 7.84681 23.7061 7.74845 23.6237C7.6501 23.5414 7.56568 23.4356 7.50002 23.3125C7.43436 23.1894 7.38874 23.0513 7.36577 22.9062C7.3428 22.761 7.34292 22.6116 7.36614 22.4666C7.38935 22.3215 7.4352 22.1835 7.50107 22.0606C7.56694 21.9376 7.65153 21.8321 7.75002 21.75Z" fill="#1E1E1E"/>
</svg>
