<svg width="279" height="60" viewBox="0 0 279 60" fill="none" xmlns="http://www.w3.org/2000/svg">
<path d="M71.68 17H83.6C87.44 17 90.44 17.8267 92.6 19.48C94.76 21.1333 95.84 23.5733 95.84 26.8C95.84 30.0267 94.76 32.4133 92.6 33.96C90.4667 35.5067 87.4667 36.28 83.6 36.28H81V43.92C81 44.2133 80.8933 44.4667 80.68 44.68C80.4667 44.8933 80.2133 45 79.92 45H71.68C71.3867 45 71.1333 44.8933 70.92 44.68C70.7067 44.4667 70.6 44.2133 70.6 43.92V18.08C70.6 17.7867 70.7067 17.5333 70.92 17.32C71.1333 17.1067 71.3867 17 71.68 17ZM80.8 24.44V28.88H83.6C84.08 28.88 84.5067 28.7067 84.88 28.36C85.2533 27.9867 85.44 27.4667 85.44 26.8C85.44 26.1333 85.2933 25.5733 85 25.12C84.7067 24.6667 84.24 24.44 83.6 24.44H80.8ZM96.8234 39.04C96.8234 35.44 99.7434 33.1333 105.583 32.12L109.823 31.44C109.823 30.64 109.757 30.1067 109.623 29.84C109.49 29.5467 109.17 29.4 108.663 29.4C108.183 29.4 107.703 29.6133 107.223 30.04C106.743 30.4667 106.29 30.68 105.863 30.68H99.0634C98.4768 30.68 98.1834 30.4 98.1834 29.84C98.1834 29.2533 98.3834 28.64 98.7834 28C99.2101 27.3333 99.8101 26.68 100.583 26.04C101.383 25.4 102.49 24.8667 103.903 24.44C105.343 24.0133 106.943 23.8 108.703 23.8C112.277 23.8 114.957 24.5467 116.743 26.04C118.53 27.5333 119.423 29.6667 119.423 32.44V43.92C119.423 44.2133 119.317 44.4667 119.103 44.68C118.89 44.8933 118.637 45 118.343 45H111.343C111.05 45 110.797 44.8933 110.583 44.68C110.37 44.4667 110.263 44.2133 110.263 43.92V42.8C109.01 44.5333 107.183 45.4 104.783 45.4C102.383 45.4 100.45 44.8 98.9834 43.6C97.5434 42.3733 96.8234 40.8533 96.8234 39.04ZM107.343 39.48C109.077 39.48 109.943 38.44 109.943 36.36L107.583 36.88C106.41 37.1467 105.823 37.64 105.823 38.36C105.823 38.68 105.957 38.9467 106.223 39.16C106.49 39.3733 106.863 39.48 107.343 39.48ZM135.285 24.2H139.005C139.725 24.2 140.178 24.52 140.365 25.16L142.965 33.48L145.405 25.16C145.591 24.52 146.045 24.2 146.765 24.2H152.925C153.191 24.2 153.418 24.2933 153.605 24.48C153.791 24.6667 153.885 24.8533 153.885 25.04C153.885 25.2267 153.871 25.3733 153.845 25.48L148.005 44C147.791 44.6667 147.351 45 146.685 45H141.325C140.658 45 140.218 44.6667 140.005 44L137.165 35.92L134.285 44C134.071 44.6667 133.631 45 132.965 45H127.605C126.938 45 126.498 44.6667 126.285 44L120.445 25.48C120.418 25.3733 120.405 25.2267 120.405 25.04C120.405 24.8533 120.498 24.6667 120.685 24.48C120.871 24.2933 121.098 24.2 121.365 24.2H127.525C128.245 24.2 128.698 24.52 128.885 25.16L131.325 33.48L133.925 25.16C134.111 24.52 134.565 24.2 135.285 24.2ZM154.483 39.04C154.483 35.44 157.403 33.1333 163.243 32.12L167.483 31.44C167.483 30.64 167.416 30.1067 167.283 29.84C167.149 29.5467 166.829 29.4 166.323 29.4C165.843 29.4 165.363 29.6133 164.883 30.04C164.403 30.4667 163.949 30.68 163.523 30.68H156.723C156.136 30.68 155.843 30.4 155.843 29.84C155.843 29.2533 156.043 28.64 156.443 28C156.869 27.3333 157.469 26.68 158.243 26.04C159.043 25.4 160.149 24.8667 161.563 24.44C163.003 24.0133 164.603 23.8 166.363 23.8C169.936 23.8 172.616 24.5467 174.403 26.04C176.189 27.5333 177.083 29.6667 177.083 32.44V43.92C177.083 44.2133 176.976 44.4667 176.763 44.68C176.549 44.8933 176.296 45 176.003 45H169.003C168.709 45 168.456 44.8933 168.243 44.68C168.029 44.4667 167.923 44.2133 167.923 43.92V42.8C166.669 44.5333 164.843 45.4 162.443 45.4C160.043 45.4 158.109 44.8 156.643 43.6C155.203 42.3733 154.483 40.8533 154.483 39.04ZM165.003 39.48C166.736 39.48 167.603 38.44 167.603 36.36L165.243 36.88C164.069 37.1467 163.483 37.64 163.483 38.36C163.483 38.68 163.616 38.9467 163.883 39.16C164.149 39.3733 164.523 39.48 165.003 39.48ZM179.144 25.8C179.144 23.08 180.264 20.8667 182.504 19.16C184.771 17.4533 187.731 16.6 191.384 16.6C195.064 16.6 198.064 17.4933 200.384 19.28C202.731 21.0667 203.904 22.9333 203.904 24.88C203.904 25.12 203.811 25.3333 203.624 25.52C203.464 25.68 203.277 25.76 203.064 25.76H195.064C194.451 25.76 193.891 25.5333 193.384 25.08C192.877 24.6267 192.197 24.4 191.344 24.4C190.064 24.4 189.424 24.7733 189.424 25.52C189.424 25.92 189.731 26.2533 190.344 26.52C190.984 26.7867 192.157 27.0267 193.864 27.24C197.837 27.7467 200.664 28.68 202.344 30.04C204.051 31.3733 204.904 33.4133 204.904 36.16C204.904 38.88 203.651 41.1067 201.144 42.84C198.664 44.5467 195.411 45.4 191.384 45.4C187.357 45.4 184.197 44.5733 181.904 42.92C179.611 41.2667 178.464 39.2533 178.464 36.88C178.464 36.64 178.544 36.44 178.704 36.28C178.891 36.0933 179.104 36 179.344 36H186.944C187.504 36 188.117 36.2667 188.784 36.8C189.477 37.3333 190.424 37.6 191.624 37.6C193.624 37.6 194.624 37.2267 194.624 36.48C194.624 36 194.264 35.64 193.544 35.4C192.824 35.1333 191.464 34.8667 189.464 34.6C182.584 33.6933 179.144 30.76 179.144 25.8ZM206.292 36.32V25.28C206.292 24.9867 206.399 24.7333 206.612 24.52C206.826 24.3067 207.079 24.2 207.372 24.2H215.012C215.306 24.2 215.559 24.3067 215.772 24.52C215.986 24.7333 216.092 24.9867 216.092 25.28V36.04C216.092 37.5067 216.759 38.24 218.092 38.24C219.426 38.24 220.092 37.5067 220.092 36.04V25.28C220.092 24.9867 220.199 24.7333 220.412 24.52C220.626 24.3067 220.879 24.2 221.172 24.2H228.772C229.066 24.2 229.319 24.3067 229.532 24.52C229.746 24.7333 229.852 24.9867 229.852 25.28V43.92C229.852 44.2133 229.746 44.4667 229.532 44.68C229.319 44.8933 229.066 45 228.772 45H221.772C221.479 45 221.226 44.8933 221.012 44.68C220.799 44.4667 220.692 44.2133 220.692 43.92V42.6C219.439 44.4667 217.226 45.4 214.052 45.4C211.866 45.4 210.026 44.64 208.532 43.12C207.039 41.5733 206.292 39.3067 206.292 36.32ZM240.996 25.28V26.68C242.863 25.0267 244.943 24.2 247.236 24.2H249.156C249.449 24.2 249.703 24.3067 249.916 24.52C250.129 24.7333 250.236 24.9867 250.236 25.28V31.52C250.236 31.8133 250.129 32.0667 249.916 32.28C249.703 32.4933 249.449 32.6 249.156 32.6H243.996C243.276 32.6 242.703 32.7733 242.276 33.12C241.876 33.44 241.649 33.88 241.596 34.44V43.92C241.596 44.2133 241.489 44.4667 241.276 44.68C241.063 44.8933 240.809 45 240.516 45H232.916C232.623 45 232.369 44.8933 232.156 44.68C231.943 44.4667 231.836 44.2133 231.836 43.92V25.28C231.836 24.9867 231.943 24.7333 232.156 24.52C232.369 24.3067 232.623 24.2 232.916 24.2H239.916C240.209 24.2 240.463 24.3067 240.676 24.52C240.889 24.7333 240.996 24.9867 240.996 25.28ZM272.967 36.96H261.047V37.16C261.047 38.7867 261.567 39.6 262.607 39.6C262.9 39.6 263.26 39.3867 263.687 38.96C264.114 38.5333 264.58 38.32 265.087 38.32H272.647C273.234 38.32 273.527 38.6133 273.527 39.2C273.527 40.5067 272.54 41.8667 270.567 43.28C268.62 44.6933 265.967 45.4 262.607 45.4C259.274 45.4 256.54 44.5333 254.407 42.8C252.3 41.04 251.247 38.6267 251.247 35.56V33.64C251.247 30.7333 252.327 28.3733 254.487 26.56C256.647 24.72 259.474 23.8 262.967 23.8C266.487 23.8 269.207 24.8267 271.127 26.88C273.074 28.9333 274.047 31.5333 274.047 34.68V35.88C274.047 36.1733 273.94 36.4267 273.727 36.64C273.514 36.8533 273.26 36.96 272.967 36.96ZM264.247 31.8C264.247 30.2 263.714 29.4 262.647 29.4C261.58 29.4 261.047 30.2 261.047 31.8V31.96H264.247V31.8Z" fill="#1A1A2E"/>
<rect width="59" height="59.2473" rx="12" fill="#FFC107"/>
<path d="M21.961 39.2342C21.3993 36.9895 18.8654 35.1539 17.8253 33.9442C16.0443 31.8693 14.9282 29.3675 14.6054 26.7269C14.2826 24.0864 14.7664 21.4145 16.0009 19.0191C17.2355 16.6237 19.1706 14.6022 21.5834 13.1876C23.9962 11.7729 26.7885 11.0225 29.6387 11.0229C32.4888 11.0234 35.2809 11.7746 37.6932 13.19C40.1055 14.6054 42.04 16.6274 43.2737 19.0232C44.5074 21.419 44.9903 24.091 44.6666 26.7314C44.3429 29.3719 43.2259 31.8734 41.4442 33.9478C40.4041 35.1556 37.874 36.9912 37.3123 39.2342H21.961ZM37.2008 42.7608V44.5241C37.2008 45.4594 36.8023 46.3564 36.093 47.0178C35.3837 47.6792 34.4218 48.0507 33.4187 48.0507H25.8546C24.8515 48.0507 23.8896 47.6792 23.1803 47.0178C22.471 46.3564 22.0725 45.4594 22.0725 44.5241V42.7608H37.2008ZM31.5277 25.1365V18.0744L23.0181 28.6631H27.7456V35.7164L36.2552 25.1365H31.5277Z" fill="black"/>
</svg>
