<svg width="47" height="41" viewBox="0 0 47 41" fill="none" xmlns="http://www.w3.org/2000/svg">
<rect x="0.5" width="46" height="41" rx="10" fill="#FFC107"/>
<path d="M24.9286 22.6429H29.2143V24.0714H24.9286V22.6429ZM24.9286 19.7857H33.5V21.2143H24.9286V19.7857ZM24.9286 16.9286H33.5V18.3571H24.9286V16.9286ZM22.0714 24.0714V22.6429H18.5V21.2143H17.0714V22.6429H13.5V24.0714H19.3679C19.105 25.1433 18.5582 26.1246 17.785 26.9121C17.3797 26.4891 17.0322 26.0142 16.7514 25.5H15.1664C15.5301 26.3714 16.0493 27.1694 16.6986 27.855C15.9327 28.3999 15.0972 28.8396 14.2143 29.1621L14.7157 30.5C15.8147 30.0999 16.8476 29.5375 17.78 28.8314C18.7167 29.5376 19.7536 30.1 20.8564 30.5L21.3571 29.1621C20.4746 28.8402 19.6393 28.4013 18.8736 27.8571C19.8823 26.815 20.5605 25.4979 20.8229 24.0714H22.0714ZM20.0479 18.3571H21.595L18.3214 10.5H16.7736L13.5 18.3571H15.0471L15.6429 16.9286H19.4529L20.0479 18.3571ZM16.2379 15.5L17.5479 12.3571L18.8571 15.5H16.2379Z" fill="#1E1E1E"/>
</svg>
