<svg width="47" height="41" viewBox="0 0 47 41" fill="none" xmlns="http://www.w3.org/2000/svg">
<rect x="0.5" width="46" height="41" rx="10" fill="#FFC107"/>
<path d="M22.998 10.9166C20.1153 10.9166 18.2466 12.8515 16.0366 13.5568C15.1377 13.8443 14.6883 13.9871 14.5062 14.1893C14.3241 14.3906 14.2714 14.6867 14.165 15.277C13.0246 21.5982 15.5163 27.4421 21.4579 29.7172C22.0952 29.9616 22.4143 30.0833 23.0008 30.0833C23.5873 30.0833 23.9074 29.9606 24.5457 29.7163C30.4864 27.4421 32.9752 21.5982 31.8348 15.277C31.7284 14.6867 31.6747 14.3906 31.4926 14.1884C31.3106 13.9862 30.8621 13.8434 29.9631 13.5568C27.7523 12.8515 25.8806 10.9166 22.998 10.9166Z" stroke="black" stroke-width="1.4375" stroke-linecap="round" stroke-linejoin="round"/>
<path d="M21.323 18.544C21.323 18.4865 21.3306 18.1549 21.3326 17.739C21.3326 17.3575 21.3 16.9915 21.4821 16.656C22.1625 15.301 24.1175 15.439 24.6005 16.819C24.6838 17.0461 24.6896 17.4055 24.6867 17.739C24.6838 18.1635 24.6925 18.544 24.6925 18.544M21.4063 18.9474C20.3713 18.9474 19.8538 19.6949 19.7388 20.1549C19.6238 20.6149 19.6238 22.2824 19.6928 22.9724C19.9228 23.8349 20.4978 24.1914 21.0613 24.3064C21.5788 24.3524 23.7638 24.3352 24.3963 24.3352C25.3163 24.3524 26.0063 24.0074 26.2938 22.9724C26.3513 22.6274 26.4088 20.7299 26.2651 20.1549C25.9603 19.2349 25.2013 18.9474 24.6263 18.9474H21.4063Z" stroke="black" stroke-width="1.4375" stroke-linecap="round" stroke-linejoin="round"/>
</svg>
