<svg width="42" height="43" viewBox="0 0 42 43" fill="none" xmlns="http://www.w3.org/2000/svg">
<circle cx="21" cy="21.5" r="21" fill="#1A1A2E"/>
<path d="M30 20.5C30 18.1131 29.0518 15.8239 27.364 14.136C25.6761 12.4482 23.3869 11.5 21 11.5C18.6131 11.5 16.3239 12.4482 14.636 14.136C12.9482 15.8239 12 18.1131 12 20.5C12 24.42 14.5 27.74 18 29V31.5H20V29.44C20.33 29.5 20.66 29.5 21 29.5C21.34 29.5 21.67 29.5 22 29.44V31.5H24V29C27.5 27.74 30 24.42 30 20.5ZM21 27.5C17.14 27.5 14 24.36 14 20.5C14 16.64 17.14 13.5 21 13.5C24.86 13.5 28 16.64 28 20.5C28 24.36 24.86 27.5 21 27.5ZM17 16.5H25V18.5H17V16.5ZM21.75 19.5L18.75 22.5L20 23.75L18.75 25L20.25 26.5L23.25 23.5L22 22.25L23.25 21L21.75 19.5Z" fill="#FFC107"/>
</svg>
