<svg width="47" height="41" viewBox="0 0 47 41" fill="none" xmlns="http://www.w3.org/2000/svg">
<rect x="0.5" width="46" height="41" rx="10" fill="#FFC107"/>
<path d="M18.8601 10.625C17.0701 11.775 15.8601 13.805 15.8601 16.125C15.8601 18.445 17.0701 20.475 18.8901 21.625C15.8201 21.625 13.3601 19.165 13.3601 16.125C13.3601 14.6663 13.9396 13.2673 14.971 12.2359C16.0025 11.2044 17.4014 10.625 18.8601 10.625ZM30.4301 12.125L31.8601 13.555L16.2901 29.125L14.8601 27.695L30.4301 12.125ZM24.2501 14.555L22.7701 13.625L21.3301 14.625L21.7501 12.925L20.3601 11.865L22.1101 11.745L22.6901 10.095L23.3601 11.725L25.0901 11.755L23.7401 12.885L24.2501 14.555ZM20.9501 18.165L19.7901 17.435L18.6701 18.215L19.0101 16.895L17.9201 16.065L19.2801 15.975L19.7301 14.685L20.2401 15.955L21.6001 15.985L20.5501 16.855L20.9501 18.165ZM30.3601 22.125C30.3601 23.5837 29.7806 24.9826 28.7492 26.0141C27.7177 27.0455 26.3188 27.625 24.8601 27.625C23.6401 27.625 22.5101 27.225 21.6001 26.555L29.2901 18.865C29.9601 19.775 30.3601 20.905 30.3601 22.125ZM25.9601 28.705L28.7301 27.555L28.4901 30.905L25.9601 28.705ZM30.2901 26.005L31.4401 23.235L33.6401 25.775L30.2901 26.005ZM31.4401 21.045L30.3001 18.265L33.6401 18.505L31.4401 21.045ZM20.9901 27.555L23.7601 28.705L21.2301 30.895L20.9901 27.555Z" fill="#1E1E1E"/>
</svg>
