<svg width="25" height="24" viewBox="0 0 25 24" fill="none" xmlns="http://www.w3.org/2000/svg">
<path d="M12.5 3.25C12.6989 3.25 12.8897 3.32902 13.0303 3.46967C13.171 3.61032 13.25 3.80109 13.25 4C13.25 4.19891 13.171 4.38968 13.0303 4.53033C12.8897 4.67098 12.6989 4.75 12.5 4.75C10.5772 4.75 8.73311 5.51384 7.37348 6.87348C6.01384 8.23311 5.25 10.0772 5.25 12C5.25 13.9228 6.01384 15.7669 7.37348 17.1265C8.73311 18.4862 10.5772 19.25 12.5 19.25C12.6989 19.25 12.8897 19.329 13.0303 19.4697C13.171 19.6103 13.25 19.8011 13.25 20C13.25 20.1989 13.171 20.3897 13.0303 20.5303C12.8897 20.671 12.6989 20.75 12.5 20.75C10.1794 20.75 7.95376 19.8281 6.31282 18.1872C4.67187 16.5462 3.75 14.3206 3.75 12C3.75 9.67936 4.67187 7.45376 6.31282 5.81282C7.95376 4.17187 10.1794 3.25 12.5 3.25Z" fill="black"/>
<path d="M16.97 9.53009C16.8375 9.38792 16.7654 9.19987 16.7688 9.00557C16.7723 8.81127 16.851 8.62588 16.9884 8.48847C17.1258 8.35106 17.3112 8.27234 17.5055 8.26892C17.6998 8.26549 17.8878 8.33761 18.03 8.47009L21.03 11.4701C21.1705 11.6107 21.2493 11.8013 21.2493 12.0001C21.2493 12.1988 21.1705 12.3895 21.03 12.5301L18.03 15.5301C17.9613 15.6038 17.8785 15.6629 17.7865 15.7039C17.6945 15.7449 17.5952 15.7669 17.4945 15.7687C17.3938 15.7705 17.2938 15.7519 17.2004 15.7142C17.107 15.6765 17.0222 15.6203 16.951 15.5491C16.8797 15.4779 16.8236 15.3931 16.7859 15.2997C16.7482 15.2063 16.7296 15.1063 16.7314 15.0056C16.7332 14.9049 16.7552 14.8056 16.7962 14.7136C16.8372 14.6216 16.8963 14.5388 16.97 14.4701L18.69 12.7501H10.5C10.3011 12.7501 10.1103 12.6711 9.96967 12.5304C9.82902 12.3898 9.75 12.199 9.75 12.0001C9.75 11.8012 9.82902 11.6104 9.96967 11.4698C10.1103 11.3291 10.3011 11.2501 10.5 11.2501H18.69L16.97 9.53009Z" fill="black"/>
</svg>
