<svg width="137" height="29" viewBox="0 0 137 29" fill="none" xmlns="http://www.w3.org/2000/svg">
<path d="M35.0854 7.72112H40.92C42.7996 7.72112 44.268 8.12575 45.3252 8.93501C46.3825 9.74428 46.9111 10.9386 46.9111 12.518C46.9111 14.0973 46.3825 15.2655 45.3252 16.0226C44.281 16.7797 42.8126 17.1582 40.92 17.1582H39.6473V20.8978C39.6473 21.0413 39.5951 21.1653 39.4907 21.2698C39.3863 21.3742 39.2623 21.4264 39.1187 21.4264H35.0854C34.9419 21.4264 34.8179 21.3742 34.7134 21.2698C34.609 21.1653 34.5568 21.0413 34.5568 20.8978V8.24975C34.5568 8.10617 34.609 7.98217 34.7134 7.87775C34.8179 7.77333 34.9419 7.72112 35.0854 7.72112ZM39.5494 11.3628V13.5361H40.92C41.1549 13.5361 41.3638 13.4512 41.5465 13.2815C41.7292 13.0988 41.8206 12.8443 41.8206 12.518C41.8206 12.1916 41.7488 11.9175 41.6052 11.6956C41.4617 11.4738 41.2332 11.3628 40.92 11.3628H39.5494ZM47.3925 18.5091C47.3925 16.747 48.8218 15.618 51.6803 15.122L53.7557 14.7891C53.7557 14.3975 53.723 14.1365 53.6578 14.006C53.5925 13.8624 53.4359 13.7906 53.1879 13.7906C52.9529 13.7906 52.718 13.895 52.483 14.1039C52.2481 14.3127 52.0262 14.4171 51.8173 14.4171H48.4889C48.2018 14.4171 48.0582 14.2801 48.0582 14.006C48.0582 13.7188 48.1561 13.4186 48.3519 13.1053C48.5607 12.779 48.8544 12.4592 49.2329 12.146C49.6245 11.8327 50.1662 11.5716 50.858 11.3628C51.5628 11.154 52.346 11.0495 53.2075 11.0495C54.9565 11.0495 56.2683 11.415 57.1428 12.146C58.0174 12.8769 58.4546 13.9211 58.4546 15.2786V20.8978C58.4546 21.0413 58.4024 21.1653 58.298 21.2698C58.1936 21.3742 58.0696 21.4264 57.926 21.4264H54.4997C54.3561 21.4264 54.2321 21.3742 54.1277 21.2698C54.0232 21.1653 53.971 21.0413 53.971 20.8978V20.3495C53.3576 21.198 52.4635 21.6222 51.2887 21.6222C50.114 21.6222 49.1677 21.3285 48.4498 20.7411C47.7449 20.1407 47.3925 19.3967 47.3925 18.5091ZM52.5418 18.7245C53.3902 18.7245 53.8144 18.2154 53.8144 17.1973L52.6592 17.4519C52.0849 17.5824 51.7978 17.8239 51.7978 18.1763C51.7978 18.3329 51.863 18.4634 51.9936 18.5679C52.1241 18.6723 52.3068 18.7245 52.5418 18.7245ZM66.2183 11.2453H68.0391C68.3916 11.2453 68.6134 11.402 68.7048 11.7152L69.9774 15.7877L71.1718 11.7152C71.2631 11.402 71.485 11.2453 71.8374 11.2453H74.8526C74.9831 11.2453 75.0941 11.291 75.1854 11.3824C75.2768 11.4738 75.3225 11.5651 75.3225 11.6565C75.3225 11.7479 75.316 11.8196 75.3029 11.8719L72.4444 20.9369C72.34 21.2632 72.1246 21.4264 71.7983 21.4264H69.1747C68.8484 21.4264 68.633 21.2632 68.5286 20.9369L67.1385 16.982L65.7288 20.9369C65.6244 21.2632 65.409 21.4264 65.0827 21.4264H62.4591C62.1328 21.4264 61.9174 21.2632 61.813 20.9369L58.9545 11.8719C58.9414 11.8196 58.9349 11.7479 58.9349 11.6565C58.9349 11.5651 58.9806 11.4738 59.072 11.3824C59.1633 11.291 59.2743 11.2453 59.4048 11.2453H62.42C62.7724 11.2453 62.9943 11.402 63.0857 11.7152L64.28 15.7877L65.5526 11.7152C65.644 11.402 65.8659 11.2453 66.2183 11.2453ZM75.6153 18.5091C75.6153 16.747 77.0445 15.618 79.9031 15.122L81.9784 14.7891C81.9784 14.3975 81.9458 14.1365 81.8805 14.006C81.8153 13.8624 81.6586 13.7906 81.4106 13.7906C81.1757 13.7906 80.9407 13.895 80.7058 14.1039C80.4709 14.3127 80.249 14.4171 80.0401 14.4171H76.7117C76.4245 14.4171 76.281 14.2801 76.281 14.006C76.281 13.7188 76.3788 13.4186 76.5746 13.1053C76.7835 12.779 77.0772 12.4592 77.4557 12.146C77.8473 11.8327 78.389 11.5716 79.0807 11.3628C79.7856 11.154 80.5687 11.0495 81.4302 11.0495C83.1793 11.0495 84.4911 11.415 85.3656 12.146C86.2401 12.8769 86.6774 13.9211 86.6774 15.2786V20.8978C86.6774 21.0413 86.6252 21.1653 86.5207 21.2698C86.4163 21.3742 86.2923 21.4264 86.1487 21.4264H82.7224C82.5789 21.4264 82.4549 21.3742 82.3504 21.2698C82.246 21.1653 82.1938 21.0413 82.1938 20.8978V20.3495C81.5803 21.198 80.6862 21.6222 79.5115 21.6222C78.3367 21.6222 77.3904 21.3285 76.6725 20.7411C75.9677 20.1407 75.6153 19.3967 75.6153 18.5091ZM80.7645 18.7245C81.613 18.7245 82.0372 18.2154 82.0372 17.1973L80.882 17.4519C80.3077 17.5824 80.0205 17.8239 80.0205 18.1763C80.0205 18.3329 80.0858 18.4634 80.2163 18.5679C80.3468 18.6723 80.5296 18.7245 80.7645 18.7245ZM87.6863 12.0285C87.6863 10.6971 88.2345 9.61375 89.3309 8.77838C90.4404 7.94301 91.8893 7.52533 93.6775 7.52533C95.4787 7.52533 96.9472 7.96259 98.0827 8.83712C99.2314 9.71165 99.8057 10.6253 99.8057 11.5782C99.8057 11.6956 99.76 11.8001 99.6686 11.8914C99.5903 11.9698 99.4989 12.0089 99.3945 12.0089H95.4787C95.1785 12.0089 94.9044 11.898 94.6564 11.6761C94.4084 11.4542 94.0756 11.3432 93.6579 11.3432C93.0314 11.3432 92.7181 11.526 92.7181 11.8914C92.7181 12.0872 92.8682 12.2504 93.1684 12.3809C93.4817 12.5114 94.056 12.6289 94.8914 12.7333C96.8362 12.9813 98.2198 13.4382 99.0421 14.1039C99.8775 14.7565 100.295 15.755 100.295 17.0994C100.295 18.4308 99.6817 19.5207 98.4547 20.3691C97.2408 21.2045 95.6484 21.6222 93.6775 21.6222C91.7065 21.6222 90.1598 21.2175 89.0373 20.4083C87.9147 19.599 87.3535 18.6135 87.3535 17.4519C87.3535 17.3344 87.3926 17.2365 87.4709 17.1582C87.5623 17.0668 87.6667 17.0211 87.7842 17.0211H91.5042C91.7783 17.0211 92.0785 17.1517 92.4048 17.4127C92.7442 17.6738 93.2076 17.8043 93.7949 17.8043C94.7739 17.8043 95.2634 17.6215 95.2634 17.2561C95.2634 17.0211 95.0872 16.8449 94.7347 16.7274C94.3823 16.5969 93.7166 16.4664 92.7377 16.3359C89.3701 15.8921 87.6863 14.4563 87.6863 12.0285ZM100.975 17.1778V11.774C100.975 11.6304 101.027 11.5064 101.131 11.402C101.236 11.2975 101.36 11.2453 101.503 11.2453H105.243C105.386 11.2453 105.51 11.2975 105.615 11.402C105.719 11.5064 105.771 11.6304 105.771 11.774V17.0407C105.771 17.7586 106.098 18.1175 106.75 18.1175C107.403 18.1175 107.729 17.7586 107.729 17.0407V11.774C107.729 11.6304 107.782 11.5064 107.886 11.402C107.99 11.2975 108.114 11.2453 108.258 11.2453H111.978C112.122 11.2453 112.246 11.2975 112.35 11.402C112.454 11.5064 112.507 11.6304 112.507 11.774V20.8978C112.507 21.0413 112.454 21.1653 112.35 21.2698C112.246 21.3742 112.122 21.4264 111.978 21.4264H108.552C108.408 21.4264 108.284 21.3742 108.18 21.2698C108.075 21.1653 108.023 21.0413 108.023 20.8978V20.2517C107.41 21.1653 106.326 21.6222 104.773 21.6222C103.703 21.6222 102.802 21.2502 102.071 20.5062C101.34 19.7491 100.975 18.6397 100.975 17.1778ZM117.961 11.774V12.4592C118.875 11.65 119.893 11.2453 121.016 11.2453H121.955C122.099 11.2453 122.223 11.2975 122.327 11.402C122.432 11.5064 122.484 11.6304 122.484 11.774V14.8283C122.484 14.9719 122.432 15.0959 122.327 15.2003C122.223 15.3047 122.099 15.3569 121.955 15.3569H119.43C119.077 15.3569 118.797 15.4418 118.588 15.6114C118.392 15.7681 118.281 15.9834 118.255 16.2575V20.8978C118.255 21.0413 118.203 21.1653 118.098 21.2698C117.994 21.3742 117.87 21.4264 117.726 21.4264H114.006C113.863 21.4264 113.739 21.3742 113.634 21.2698C113.53 21.1653 113.478 21.0413 113.478 20.8978V11.774C113.478 11.6304 113.53 11.5064 113.634 11.402C113.739 11.2975 113.863 11.2453 114.006 11.2453H117.433C117.576 11.2453 117.7 11.2975 117.805 11.402C117.909 11.5064 117.961 11.6304 117.961 11.774ZM133.61 17.491H127.776V17.5889C127.776 18.3851 128.03 18.7832 128.539 18.7832C128.683 18.7832 128.859 18.6788 129.068 18.47C129.277 18.2611 129.505 18.1567 129.753 18.1567H133.454C133.741 18.1567 133.884 18.3003 133.884 18.5874C133.884 19.227 133.401 19.8927 132.435 20.5845C131.483 21.2763 130.184 21.6222 128.539 21.6222C126.908 21.6222 125.57 21.198 124.526 20.3495C123.494 19.4881 122.979 18.3068 122.979 16.8058V15.866C122.979 14.4432 123.507 13.2881 124.565 12.4005C125.622 11.4999 127.006 11.0495 128.715 11.0495C130.438 11.0495 131.77 11.5521 132.71 12.5571C133.662 13.5622 134.139 14.8348 134.139 16.375V16.9624C134.139 17.106 134.087 17.23 133.982 17.3344C133.878 17.4388 133.754 17.491 133.61 17.491ZM129.342 14.9653C129.342 14.1822 129.081 13.7906 128.559 13.7906C128.037 13.7906 127.776 14.1822 127.776 14.9653V15.0437H129.342V14.9653Z" fill="#1A1A2E"/>
<rect width="28.879" height="29" rx="5.87369" fill="#FFC107"/>
<path d="M10.7493 19.2043C10.4744 18.1056 9.23411 17.2071 8.72502 16.615C7.85328 15.5994 7.30694 14.3748 7.14896 13.0823C6.99097 11.7898 7.22776 10.482 7.83205 9.30954C8.43633 8.13706 9.38353 7.1476 10.5645 6.45515C11.7455 5.7627 13.1123 5.39542 14.5074 5.39563C15.9024 5.39584 17.2691 5.76352 18.4498 6.45633C19.6306 7.14913 20.5775 8.13887 21.1813 9.31154C21.7852 10.4842 22.0216 11.7921 21.8631 13.0845C21.7047 14.377 21.158 15.6014 20.2859 16.6167C19.7768 17.208 18.5383 18.1064 18.2634 19.2043H10.7493ZM18.2088 20.9305V21.7936C18.2088 22.2514 18.0138 22.6905 17.6666 23.0142C17.3194 23.3379 16.8486 23.5198 16.3576 23.5198H12.6552C12.1642 23.5198 11.6933 23.3379 11.3461 23.0142C10.999 22.6905 10.8039 22.2514 10.8039 21.7936V20.9305H18.2088ZM15.432 12.3038V8.84715L11.2667 14.03H13.5808V17.4824L17.746 12.3038H15.432Z" fill="#1E1E1E"/>
</svg>
