<svg width="42" height="42" viewBox="0 0 42 42" fill="none" xmlns="http://www.w3.org/2000/svg">
<circle cx="21" cy="21" r="21" fill="#6B6B98"/>
<path d="M11 31L14 28M16.5 22.5L19 20M19.5 25.5L22 23M27 12L23 16H29L25 20M15.3 29.3C15.523 29.5237 15.7879 29.7013 16.0796 29.8224C16.3714 29.9435 16.6841 30.0059 17 30.0059C17.3159 30.0059 17.6286 29.9435 17.9204 29.8224C18.2121 29.7013 18.477 29.5237 18.7 29.3L21 27L15 21L12.7 23.3C12.4763 23.523 12.2987 23.7879 12.1776 24.0796C12.0565 24.3714 11.9941 24.6841 11.9941 25C11.9941 25.3159 12.0565 25.6286 12.1776 25.9204C12.2987 26.2121 12.4763 26.477 12.7 26.7L15.3 29.3Z" stroke="#DEDEFE" stroke-width="2" stroke-linecap="round" stroke-linejoin="round"/>
</svg>
