<svg width="47" height="41" viewBox="0 0 47 41" fill="none" xmlns="http://www.w3.org/2000/svg">
<path d="M0.5 10C0.5 4.47715 4.97715 0 10.5 0H36.5C42.0228 0 46.5 4.47715 46.5 10V31C46.5 36.5228 42.0228 41 36.5 41H10.5C4.97715 41 0.5 36.5228 0.5 31V10Z" fill="#FFC107"/>
<path d="M23.4463 27.9342C23.8216 27.9342 24.1391 27.8045 24.3986 27.5449C24.6581 27.2854 24.7875 26.9684 24.7868 26.5937C24.7861 26.2191 24.6567 25.9017 24.3986 25.6415C24.1405 25.3812 23.8231 25.2518 23.4463 25.2533C23.0695 25.2547 22.7525 25.3844 22.4951 25.6425C22.2377 25.9006 22.108 26.2177 22.1058 26.5937C22.1037 26.9698 22.2334 27.2872 22.4951 27.546C22.7568 27.8048 23.0738 27.9342 23.4463 27.9342ZM23.4999 32.2237C22.0165 32.2237 20.6224 31.9421 19.3176 31.3787C18.0129 30.8153 16.878 30.0514 15.9128 29.087C14.9477 28.1226 14.1838 26.9877 13.6212 25.6822C13.0585 24.3768 12.7768 22.9827 12.7761 21.4999C12.7754 20.0172 13.0571 18.6231 13.6212 17.3176C14.1852 16.0122 14.9491 14.8773 15.9128 13.9128C16.8766 12.9484 18.0115 12.1845 19.3176 11.6212C20.6238 11.0578 22.0179 10.7761 23.4999 10.7761C24.982 10.7761 26.3761 11.0578 27.6822 11.6212C28.9884 12.1845 30.1233 12.9484 31.087 13.9128C32.0507 14.8773 32.815 16.0122 33.3798 17.3176C33.9446 18.6231 34.2259 20.0172 34.2237 21.4999C34.2216 22.9827 33.9399 24.3768 33.3787 25.6822C32.8175 26.9877 32.0536 28.1226 31.087 29.087C30.1205 30.0514 28.9855 30.8157 27.6822 31.3798C26.3789 31.9438 24.9848 32.2252 23.4999 32.2237ZM23.4999 30.079C25.8949 30.079 27.9235 29.2479 29.5857 27.5857C31.2479 25.9235 32.079 23.8949 32.079 21.4999C32.079 19.1049 31.2479 17.0764 29.5857 15.4142C27.9235 13.752 25.8949 12.9209 23.4999 12.9209C21.1049 12.9209 19.0764 13.752 17.4142 15.4142C15.752 17.0764 14.9209 19.1049 14.9209 21.4999C14.9209 23.8949 15.752 25.9235 17.4142 27.5857C19.0764 29.2479 21.1049 30.079 23.4999 30.079ZM23.6072 16.8887C24.054 16.8887 24.4429 17.0317 24.7739 17.3176C25.1049 17.6036 25.2701 17.9611 25.2694 18.39C25.2694 18.7832 25.1489 19.1318 24.908 19.4356C24.667 19.7394 24.3943 20.0254 24.0897 20.2935C23.6787 20.651 23.3169 21.0442 23.0045 21.4731C22.6921 21.9021 22.5355 22.3846 22.5348 22.9208C22.5348 23.1711 22.6288 23.3812 22.8168 23.5514C23.0048 23.7215 23.2236 23.8063 23.4731 23.8055C23.7412 23.8055 23.9693 23.7162 24.1573 23.5375C24.3453 23.3587 24.4658 23.1353 24.5187 22.8672C24.5902 22.4919 24.751 22.1569 25.0013 21.8624C25.2515 21.5678 25.5196 21.2862 25.8055 21.0174C26.2166 20.6242 26.5698 20.1952 26.8651 19.7305C27.1603 19.2658 27.3076 18.7475 27.3069 18.1755C27.3069 17.264 26.9362 16.518 26.1948 15.9375C25.4534 15.357 24.5909 15.0664 23.6072 15.0656C22.928 15.0656 22.2803 15.2086 21.664 15.4946C21.0478 15.7806 20.5784 16.2185 20.256 16.8083C20.1309 17.0227 20.0908 17.2508 20.1359 17.4924C20.1809 17.7341 20.3014 17.9171 20.4973 18.0415C20.7475 18.1845 21.0066 18.2292 21.2747 18.1755C21.5428 18.1219 21.7662 17.97 21.945 17.7198C22.1416 17.4517 22.3875 17.2462 22.6828 17.1032C22.978 16.9602 23.2862 16.8887 23.6072 16.8887Z" fill="black"/>
</svg>
