<svg width="28" height="28" viewBox="0 0 28 28" fill="none" xmlns="http://www.w3.org/2000/svg">
<circle cx="14" cy="14" r="14" fill="#FFC107"/>
<path d="M8 21.9999C7.45 21.9999 6.97933 21.8043 6.588 21.4129C6.19667 21.0216 6.00067 20.5506 6 19.9999V17.9999C6 17.7166 6.096 17.4793 6.288 17.2879C6.48 17.0966 6.71733 17.0006 7 16.9999C7.28267 16.9993 7.52033 17.0953 7.713 17.2879C7.90567 17.4806 8.00133 17.7179 8 17.9999V19.9999H20V17.9999C20 17.7166 20.096 17.4793 20.288 17.2879C20.48 17.0966 20.7173 17.0006 21 16.9999C21.2827 16.9993 21.5203 17.0953 21.713 17.2879C21.9057 17.4806 22.0013 17.7179 22 17.9999V19.9999C22 20.5499 21.8043 21.0209 21.413 21.4129C21.0217 21.8049 20.5507 22.0006 20 21.9999H8ZM13 9.84994L11.125 11.7249C10.925 11.9249 10.6877 12.0209 10.413 12.0129C10.1383 12.0049 9.90067 11.9006 9.7 11.6999C9.51667 11.4999 9.42067 11.2666 9.412 10.9999C9.40333 10.7333 9.49933 10.4999 9.7 10.2999L13.3 6.69994C13.4 6.59994 13.5083 6.52928 13.625 6.48794C13.7417 6.44661 13.8667 6.42561 14 6.42494C14.1333 6.42428 14.2583 6.44528 14.375 6.48794C14.4917 6.53061 14.6 6.60128 14.7 6.69994L18.3 10.2999C18.5 10.4999 18.596 10.7333 18.588 10.9999C18.58 11.2666 18.484 11.4999 18.3 11.6999C18.1 11.8999 17.8627 12.0043 17.588 12.0129C17.3133 12.0216 17.0757 11.9256 16.875 11.7249L15 9.84994V16.9999C15 17.2833 14.904 17.5209 14.712 17.7129C14.52 17.9049 14.2827 18.0006 14 17.9999C13.7173 17.9993 13.48 17.9033 13.288 17.7119C13.096 17.5206 13 17.2833 13 16.9999V9.84994Z" fill="black"/>
</svg>
