<svg width="47" height="41" viewBox="0 0 47 41" fill="none" xmlns="http://www.w3.org/2000/svg">
<path d="M0.5 10C0.5 4.47715 4.97715 0 10.5 0H36.5C42.0228 0 46.5 4.47715 46.5 10V31C46.5 36.5228 42.0228 41 36.5 41H10.5C4.97715 41 0.5 36.5228 0.5 31V10Z" fill="#FFC107"/>
<path d="M27 28.9L26.275 29.125C26.0583 29.1917 25.8457 29.1833 25.637 29.1C25.4283 29.0167 25.266 28.8833 25.15 28.7L24.95 28.35C24.8333 28.15 24.7917 27.9333 24.825 27.7C24.8583 27.4667 24.9667 27.275 25.15 27.125L25.7 26.65C25.6667 26.4333 25.65 26.2167 25.65 26C25.65 25.7833 25.6667 25.5667 25.7 25.35L25.15 24.875C24.9667 24.725 24.8583 24.5377 24.825 24.313C24.7917 24.0883 24.8333 23.8757 24.95 23.675L25.175 23.3C25.2917 23.1167 25.45 22.9833 25.65 22.9C25.85 22.8167 26.0583 22.8083 26.275 22.875L27 23.1C27.1833 22.9667 27.3627 22.8543 27.538 22.763C27.7133 22.6717 27.9007 22.584 28.1 22.5L28.25 21.775C28.3 21.5417 28.4127 21.3543 28.588 21.213C28.7633 21.0717 28.9673 21.0007 29.2 21H29.6C29.8333 21 30.0373 21.075 30.212 21.225C30.3867 21.375 30.4993 21.5667 30.55 21.8L30.7 22.5C30.9 22.5833 31.0873 22.6707 31.262 22.762C31.4367 22.8533 31.616 22.966 31.8 23.1L32.525 22.875C32.7417 22.8083 32.9543 22.8167 33.163 22.9C33.3717 22.9833 33.534 23.1167 33.65 23.3L33.85 23.65C33.9667 23.85 34.0083 24.0667 33.975 24.3C33.9417 24.5333 33.8333 24.725 33.65 24.875L33.1 25.35C33.1333 25.5667 33.15 25.7833 33.15 26C33.15 26.2167 33.1333 26.4333 33.1 26.65L33.65 27.125C33.8333 27.275 33.9417 27.4627 33.975 27.688C34.0083 27.9133 33.9667 28.1257 33.85 28.325L33.625 28.7C33.5083 28.8833 33.35 29.0167 33.15 29.1C32.95 29.1833 32.7417 29.1917 32.525 29.125L31.8 28.9C31.6167 29.0333 31.4373 29.1457 31.262 29.237C31.0867 29.3283 30.8993 29.416 30.7 29.5L30.55 30.225C30.5 30.4583 30.3877 30.646 30.213 30.788C30.0383 30.93 29.834 31.0007 29.6 31H29.2C28.9667 31 28.7627 30.925 28.588 30.775C28.4133 30.625 28.3007 30.4333 28.25 30.2L28.1 29.5C27.9 29.4167 27.7127 29.3293 27.538 29.238C27.3633 29.1467 27.184 29.034 27 28.9ZM29.4 28C29.95 28 30.421 27.8043 30.813 27.413C31.205 27.0217 31.4007 26.5507 31.4 26C31.3993 25.4493 31.2037 24.9787 30.813 24.588C30.4223 24.1973 29.9513 24.0013 29.4 24C28.8487 23.9987 28.378 24.1947 27.988 24.588C27.598 24.9813 27.402 25.452 27.4 26C27.398 26.548 27.594 27.019 27.988 27.413C28.382 27.807 28.8527 28.0027 29.4 28ZM15.5 27V19V19.325V15V27ZM15.5 17H31.5V15H15.5V17ZM15.5 29C14.95 29 14.4793 28.8043 14.088 28.413C13.6967 28.0217 13.5007 27.5507 13.5 27V15C13.5 14.45 13.696 13.9793 14.088 13.588C14.48 13.1967 14.9507 13.0007 15.5 13H31.5C32.05 13 32.521 13.196 32.913 13.588C33.305 13.98 33.5007 14.4507 33.5 15V18.95C33.5 19.25 33.371 19.471 33.113 19.613C32.855 19.755 32.584 19.759 32.3 19.625C31.8667 19.425 31.404 19.2707 30.912 19.162C30.42 19.0533 29.916 18.9993 29.4 19C28.45 19 27.5543 19.1793 26.713 19.538C25.8717 19.8967 25.134 20.384 24.5 21H15.5V27H22.075C22.3583 27 22.596 27.096 22.788 27.288C22.98 27.48 23.0757 27.7173 23.075 28C23.0743 28.2827 22.9787 28.5203 22.788 28.713C22.5973 28.9057 22.3597 29.0013 22.075 29H15.5Z" fill="black"/>
</svg>
