<svg width="130" height="130" viewBox="0 0 130 130" fill="none" xmlns="http://www.w3.org/2000/svg">
<path d="M65 0.833252C100.439 0.833252 129.167 29.5671 129.167 64.9999C129.167 100.433 100.439 129.167 65 129.167C29.5608 129.167 0.833374 100.433 0.833374 64.9999C0.833374 29.5671 29.5608 0.833252 65 0.833252Z" fill="url(#paint0_linear_109_860)"/>
<path d="M65.0129 84.2755C64.1545 84.2483 63.2993 84.394 62.4983 84.7037C61.6972 85.0135 60.9665 85.481 60.3497 86.0787C59.7328 86.6763 59.2424 87.3918 58.9074 88.1827C58.5725 88.9735 58.3999 89.8237 58.3999 90.6825C58.3999 91.5414 58.5725 92.3915 58.9074 93.1824C59.2424 93.9733 59.7328 94.6888 60.3497 95.2864C60.9665 95.884 61.6972 96.3516 62.4983 96.6614C63.2993 96.9711 64.1545 97.1168 65.0129 97.0896C66.6771 97.0369 68.2555 96.3388 69.414 95.143C70.5726 93.9472 71.2204 92.3475 71.2204 90.6825C71.2204 89.0176 70.5726 87.4179 69.414 86.2221C68.2555 85.0263 66.6771 84.3282 65.0129 84.2755ZM65.0001 32.9165C63.4275 32.9169 61.9097 33.4948 60.7351 34.5405C59.5605 35.5862 58.8108 37.0268 58.6284 38.5888L58.5834 39.3332L58.5963 71.4229L58.6412 72.1737C58.8267 73.7332 59.5777 75.1706 60.752 76.2135C61.9264 77.2564 63.4424 77.8324 65.0129 77.8324C66.5835 77.8324 68.0995 77.2564 69.2738 76.2135C70.4481 75.1706 71.1992 73.7332 71.3847 72.1737L71.4296 71.4229L71.4168 39.3332L71.3719 38.5824C71.188 37.0216 70.4376 35.5825 69.2632 34.5381C68.0887 33.4937 66.5718 32.9167 65.0001 32.9165Z" fill="url(#paint1_linear_109_860)"/>
<defs>
<linearGradient id="paint0_linear_109_860" x1="20.8855" y1="-19.2188" x2="105.104" y2="141.198" gradientUnits="userSpaceOnUse">
<stop stop-color="#FFCD0F"/>
<stop offset="1" stop-color="#FE8401"/>
</linearGradient>
<linearGradient id="paint1_linear_109_860" x1="47.8804" y1="32.9165" x2="78.6933" y2="98.7002" gradientUnits="userSpaceOnUse">
<stop stop-color="#4A4A4A"/>
<stop offset="1" stop-color="#212121"/>
</linearGradient>
</defs>
</svg>
